<?xml version="1.0" encoding="UTF-8"?>
<svg version="1.1" xmlns="http://www.w3.org/2000/svg" width="500" height="500">
<path d="M0 0 C165 0 330 0 500 0 C500 165 500 330 500 500 C335 500 170 500 0 500 C0 335 0 170 0 0 Z " fill="#FDFDFD" transform="translate(0,0)"/>
<path d="M0 0 C95.7 0 191.4 0 290 0 C290.0825 27.534375 290.165 55.06875 290.25 83.4375 C290.28641602 92.12634521 290.32283203 100.81519043 290.36035156 109.76733398 C290.37841797 120.39074707 290.37841797 120.39074707 290.3817749 125.36659241 C290.38549629 128.83630132 290.40046505 132.30576456 290.42230225 135.77540588 C290.44982249 140.20699539 290.45794929 144.63822979 290.4522891 149.06989682 C290.45347196 150.69264755 290.46135455 152.31541122 290.47686052 153.9380883 C290.57584843 164.80555999 289.90293044 173.83363855 282 182 C281.34 182 280.68 182 280 182 C279.67 182.99 279.34 183.98 279 185 C272.45040496 187.70526752 265.0196282 188.32847287 258.24609375 186.08984375 C252.3034005 183.33548071 247.71483274 180.20050396 245.14892578 173.9152832 C242.95096593 167.13158621 242.63800788 160.9648363 242.8125 153.875 C242.874375 150.28625 242.93625 146.6975 243 143 C234.42 143 225.84 143 217 143 C217.12375 147.08375 217.2475 151.1675 217.375 155.375 C217.40899902 156.64134277 217.44299805 157.90768555 217.47802734 159.21240234 C218.02715167 175.10719111 221.4966479 189.35103585 233 201 C242.70360855 209.26142085 253.76268605 211.74542793 266.25 211.625 C267.4364209 211.61662109 268.6228418 211.60824219 269.84521484 211.59960938 C282.58839332 211.271833 292.84421395 208.36508143 302.140625 199.12109375 C312.81164781 186.94805723 314.59849131 174.13480686 314.54589844 158.48144531 C314.55464942 156.74569784 314.56514047 155.00995842 314.57722473 153.27423096 C314.60491875 148.59733969 314.60849311 143.9207138 314.60750484 139.24375248 C314.61064831 134.34300457 314.63629618 129.44237368 314.65948486 124.54168701 C314.69993904 115.27727109 314.72036063 106.01292537 314.73345876 96.74843478 C314.74936475 86.19448561 314.78779546 75.6406553 314.82805204 65.0867753 C314.9103061 43.39122003 314.96368975 21.69567664 315 0 C323.25 0 331.5 0 340 0 C340 77.22 340 154.44 340 234 C227.8 234 115.6 234 0 234 C0 156.78 0 79.56 0 0 Z " fill="#5E8771" transform="translate(80,90)"/>
<path d="M0 0 C13.98375 -0.12375 27.9675 -0.2475 42.375 -0.375 C46.75313965 -0.42962402 51.1312793 -0.48424805 55.64208984 -0.54052734 C61.08325195 -0.56762695 61.08325195 -0.56762695 63.64883423 -0.57266235 C65.4006369 -0.58173905 67.15240762 -0.60254885 68.90396118 -0.63345337 C86.10220848 -0.92112304 100.45344228 2.87427597 115.5625 11.1875 C116.78743164 11.82461914 116.78743164 11.82461914 118.03710938 12.47460938 C123.86702617 15.60107852 123.86702617 15.60107852 125 19 C126.65697379 19.69040574 128.3255761 20.3530635 130 21 C134.7616971 24.33318797 139.13206879 28.39620638 141 34 C141.721875 34.66 142.44375 35.32 143.1875 36 C152.47195338 44.93561554 156.30057595 59.84399488 159 72 C159.17273438 72.74056641 159.34546875 73.48113281 159.5234375 74.24414062 C160.54267262 80.13816012 160.29191922 86.21628908 160.3125 92.1875 C160.31642761 93.26621872 160.31642761 93.26621872 160.32043457 94.36672974 C160.32812547 114.04416417 156.42468813 129.27550034 146 146 C145.45214844 146.93457031 144.90429688 147.86914062 144.33984375 148.83203125 C140.58924075 155.07734057 136.69416584 159.50400533 131 164 C129.93651447 164.97809618 128.87400064 165.95725003 127.8125 166.9375 C122.79218711 171.23563331 114.71999185 178 108 178 C108 178.66 108 179.32 108 180 C93.34990921 186.1042045 79.73244748 187.57879773 64.0625 187.390625 C62.20207332 187.38314241 60.34163863 187.37745906 58.48120117 187.37347412 C53.64128938 187.35837629 48.80187622 187.31923614 43.9621582 187.2746582 C39.00088237 187.23335854 34.03952407 187.21538986 29.078125 187.1953125 C19.38516503 187.15272231 9.69270244 187.08250729 0 187 C0 179.41 0 171.82 0 164 C2.19342041 163.98541748 4.38684082 163.97083496 6.64672852 163.95581055 C13.95101345 163.90513116 21.25509261 163.83848097 28.55917454 163.76428509 C32.98108101 163.71984465 37.40290089 163.6805332 41.82495117 163.65356445 C46.10454779 163.6272654 50.38380634 163.58668284 54.66319084 163.53681374 C56.28353559 163.52032257 57.90393856 163.50869923 59.52435493 163.50238609 C73.80876279 163.4411869 87.44372962 162.50088165 100 155 C100.88042969 154.51917969 101.76085937 154.03835938 102.66796875 153.54296875 C116.0481552 145.78661243 126.06933712 133.12681889 131.3359375 118.67578125 C132.11981934 115.51719855 132.44345254 113.24222376 132 110 C129.84306508 106.97732514 129.84306508 106.97732514 127 104.25 C122 99.20945946 122 99.20945946 122 97 C120.35 97 118.7 97 117 97 C116.01 98.98 116.01 98.98 115 101 C114.34 101 113.68 101 113 101 C113 100.34 113 99.68 113 99 C112.09121094 98.88398438 112.09121094 98.88398438 111.1640625 98.765625 C108.25126066 97.73510305 107.76730213 96.4627435 106.375 93.75 C105.95605469 92.94175781 105.53710938 92.13351563 105.10546875 91.30078125 C103.95384216 88.90393297 102.88961471 86.507096 102 84 C101.34 84 100.68 84 100 84 C98.82393119 82.16924301 97.73417618 80.28268918 96.6875 78.375 C94.1007786 73.8253819 91.70646751 69.70646751 88 66 C85.04106182 65.66069419 85.04106182 65.66069419 83.5625 67.328125 C83.046875 67.96234375 82.53125 68.5965625 82 69.25 C78.95565728 72.89291327 75.798544 76.4027687 72.5625 79.875 C68.29486348 84.47125405 64.3450361 89.22776931 60.55859375 94.234375 C59.78708984 95.10835937 59.78708984 95.10835937 59 96 C58.34 96 57.68 96 57 96 C56.76023438 96.56847656 56.52046875 97.13695312 56.2734375 97.72265625 C54.74154841 100.46220023 52.88906571 102.26745695 50.625 104.4375 C47.50723281 107.47995881 44.60259233 110.49215817 42 114 C37.03231242 112.44759763 32.82132943 109.48945219 29 106 C29 105.34 29 104.68 29 104 C23.98605412 106.46526729 21.18555967 110.07540869 17.8125 114.375 C17.24950195 115.07947266 16.68650391 115.78394531 16.10644531 116.50976562 C11.99171336 121.6781853 7.94676134 126.9032784 3.98364258 132.18896484 C3.01123272 133.47633441 2.0089036 134.74102627 1 136 C0.67 136 0.34 136 0 136 C0 91.12 0 46.24 0 0 Z " fill="#FBFCFC" transform="translate(105,112)"/>
<path d="M0 0 C18.12225705 0 18.12225705 0 23 4 C26.56444501 7.65355613 27.26945797 10.54612105 27.4375 15.5 C27.26039712 19.98864204 26.67879293 23.26882413 24 27 C21.9375 28.125 21.9375 28.125 20 29 C19.34 30.32 18.68 31.64 18 33 C12.06 33 6.12 33 0 33 C0 22.11 0 11.22 0 0 Z " fill="#527166" transform="translate(84,356)"/>
<path d="M0 0 C5.61 0 11.22 0 17 0 C18.98 3.63 20.96 7.26 23 11 C23.99 10.34 24.98 9.68 26 9 C26.36297936 7.02252878 26.36297936 7.02252878 26.1875 4.875 C26.125625 3.59625 26.06375 2.3175 26 1 C28.56564725 -0.28282363 30.51033069 -0.20391953 33.375 -0.25 C34.33148438 -0.27578125 35.28796875 -0.3015625 36.2734375 -0.328125 C39.49392517 0.05944085 40.67174313 0.7756777 43 3 C43.45410156 5.17651367 43.45410156 5.17651367 43.390625 7.66796875 C43.37773437 8.56064453 43.36484375 9.45332031 43.3515625 10.37304688 C43.31804687 11.30181641 43.28453125 12.23058594 43.25 13.1875 C43.23195313 14.12787109 43.21390625 15.06824219 43.1953125 16.03710938 C43.1481655 18.35909889 43.08238231 20.6790369 43 23 C41.68 23 40.36 23 39 23 C39 22.34 39 21.68 39 21 C38.319375 21.515625 37.63875 22.03125 36.9375 22.5625 C33.11401601 24.43356664 31.07944243 24.03840353 27 23 C24.5625 21.4375 24.5625 21.4375 23 20 C22.690625 20.9590625 22.690625 20.9590625 22.375 21.9375 C21.694375 22.9584375 21.694375 22.9584375 21 24 C19.02 24.33 17.04 24.66 15 25 C15 18.73 15 12.46 15 6 C11.7 6 8.4 6 5 6 C5 11.61 5 17.22 5 23 C3.35 23 1.7 23 0 23 C0 15.41 0 7.82 0 0 Z " fill="#EBF6F2" transform="translate(340,365)"/>
<path d="M0 0 C5.33333333 0 10.66666667 0 16 0 C16.33 0.66 16.66 1.32 17 2 C17.66 1.34 18.32 0.68 19 0 C21.625 -0.125 21.625 -0.125 24 0 C24 1.65 24 3.3 24 5 C23.030625 5.28875 22.06125 5.5775 21.0625 5.875 C17.89335797 6.64214682 17.89335797 6.64214682 17 9 C16.76970044 11.37123246 16.58880058 13.74741943 16.4375 16.125 C16.35371094 17.40632813 16.26992188 18.68765625 16.18359375 20.0078125 C16.12300781 20.99523437 16.06242187 21.98265625 16 23 C14.02 23 12.04 23 10 23 C10 22.34 10 21.68 10 21 C8.68 21 7.36 21 6 21 C6.33 22.32 6.66 23.64 7 25 C5.329375 25.2165625 5.329375 25.2165625 3.625 25.4375 C0.17857953 25.78372035 0.17857953 25.78372035 -2 27 C-2.66 26.34 -3.32 25.68 -4 25 C-5.134375 24.690625 -6.26875 24.38125 -7.4375 24.0625 C-11.94174682 22.71912814 -11.94174682 22.71912814 -14 20 C-14.34057617 17.9152832 -14.34057617 17.9152832 -14.29296875 15.55078125 C-14.28330078 14.70322266 -14.27363281 13.85566406 -14.26367188 12.98242188 C-14.23853516 12.10134766 -14.21339844 11.22027344 -14.1875 10.3125 C-14.17396484 9.41982422 -14.16042969 8.52714844 -14.14648438 7.60742188 C-14.11114079 5.40433834 -14.06180493 3.20247418 -14 1 C-12.68 1 -11.36 1 -10 1 C-9.93941406 2.04800781 -9.87882812 3.09601563 -9.81640625 4.17578125 C-9.73198262 5.55470048 -9.64733553 6.93360605 -9.5625 8.3125 C-9.52318359 9.00279297 -9.48386719 9.69308594 -9.44335938 10.40429688 C-9.25072585 13.47161535 -8.97677283 16.06968152 -8 19 C-5.69 18.34 -3.38 17.68 -1 17 C-0.67 11.39 -0.34 5.78 0 0 Z " fill="#F3FAF8" transform="translate(312,365)"/>
<path d="M0 0 C0.66 0 1.32 0 2 0 C0.75770289 12.94214 -1.94535412 25.37645771 -5 38 C-7.93446886 36.58208437 -10.43332409 35.01667393 -13 33 C-18.65072687 35.17903847 -23.27155556 38.04979228 -28.1875 41.5625 C-29.57518604 42.54528411 -30.96445913 43.52583193 -32.35546875 44.50390625 C-32.96028076 44.93517822 -33.56509277 45.3664502 -34.18823242 45.81079102 C-36.06371185 47.04181922 -37.97610574 48.03614789 -40 49 C-38.79618552 46.50638429 -37.54571278 44.31856917 -36 42 C-35.34 42 -34.68 42 -34 42 C-33.74863281 41.43925781 -33.49726563 40.87851563 -33.23828125 40.30078125 C-27.98768901 30.54494899 -18.73054919 22.00444817 -11.45361328 13.67382812 C-10.18583974 12.21399349 -8.9333639 10.74090174 -7.68359375 9.265625 C-6.75740234 8.17507812 -6.75740234 8.17507812 -5.8125 7.0625 C-5.04873047 6.15177734 -5.04873047 6.15177734 -4.26953125 5.22265625 C-3 4 -3 4 -1 4 C-0.67 2.68 -0.34 1.36 0 0 Z " fill="#F2F8F4" transform="translate(188,190)"/>
<path d="M0 0 C5.61971831 2.85915493 5.61971831 2.85915493 7 7 C7.75270136 13.23666838 6.70455691 17.13999181 2.98046875 22.26171875 C0.54029937 24.40348477 -0.84290858 24.68256133 -4.0625 24.8125 C-8.43988157 24.40438322 -10.97402344 23.30966186 -14 20 C-16.9657349 15.55139766 -16.64087636 11.21856465 -16 6 C-12.00834186 -0.65276357 -7.26293532 -0.82305852 0 0 Z " fill="#5A7D6F" transform="translate(286,365)"/>
<path d="M0 0 C3.70269656 0.94350194 5.49451263 2.36020229 7.66796875 5.46875 C9.46152414 9.5476421 9.63332592 13.34835859 8.63671875 17.671875 C6.20215599 20.83022669 3.93699632 22.47168995 0.63671875 24.671875 C-4.01377214 24.90478773 -8.13155311 24.5731395 -11.92578125 21.796875 C-14.87962659 17.43032102 -15.20607477 12.77077582 -14.36328125 7.671875 C-11.45389107 1.1257471 -6.91368459 -0.49046603 0 0 Z " fill="#678379" transform="translate(129.36328125,364.328125)"/>
<path d="M0 0 C1.32 0 2.64 0 4 0 C4 0.66 4 1.32 4 2 C4.53625 1.67 5.0725 1.34 5.625 1 C8.6161026 -0.25941162 10.77729983 -0.26855835 14 0 C16.375 1 16.375 1 18 2 C18.66 1.34 19.32 0.68 20 0 C22.05859375 -0.3359375 22.05859375 -0.3359375 24.4375 -0.375 C25.61119141 -0.41753906 25.61119141 -0.41753906 26.80859375 -0.4609375 C29 0 29 0 30.7734375 1.4140625 C32.68487267 5.44390352 32.31409431 9.35490516 32.1875 13.75 C32.16719727 15.08224609 32.16719727 15.08224609 32.14648438 16.44140625 C32.11121309 18.62822578 32.06192752 20.81379966 32 23 C30.35 23 28.7 23 27 23 C26.67 17.39 26.34 11.78 26 6 C23.525 5.505 23.525 5.505 21 5 C18.06552643 7.93447357 18.53841577 11.18259456 18.375 15.125 C18.33632812 15.87910156 18.29765625 16.63320313 18.2578125 17.41015625 C18.16348969 19.27303184 18.08065338 21.13648255 18 23 C16.35 23 14.7 23 13 23 C12.67 17.06 12.34 11.12 12 5 C10.35 5 8.7 5 7 5 C4.88074396 7.11925604 5.58168983 11.6196093 5.4375 14.5625 C5.39431641 15.36880859 5.35113281 16.17511719 5.30664062 17.00585938 C5.20024738 19.00368805 5.09959112 21.0018207 5 23 C3.35 23 1.7 23 0 23 C0 15.41 0 7.82 0 0 Z " fill="#59796D" transform="translate(143,365)"/>
<path d="M0 0 C1.04929688 -0.03996094 2.09859375 -0.07992188 3.1796875 -0.12109375 C6.125 0.4375 6.125 0.4375 8.4921875 2.3828125 C10.74634203 6.59991499 10.56776793 10.05313533 10.375 14.75 C10.35695312 15.58595703 10.33890625 16.42191406 10.3203125 17.28320312 C10.27341126 19.33513228 10.20167411 21.38646756 10.125 23.4375 C8.805 23.4375 7.485 23.4375 6.125 23.4375 C6.125 22.7775 6.125 22.1175 6.125 21.4375 C5.42375 21.9325 4.7225 22.4275 4 22.9375 C0.66699763 24.67645776 -1.16565683 24.91103317 -4.875 24.4375 C-7.25 23.4375 -7.25 23.4375 -8.875 21.4375 C-9.43854414 18.67728381 -9.62274777 16.16458011 -8.875 13.4375 C-6.00228558 10.55819678 -3.61169399 10.0122825 0.375 9.75 C1.26703125 9.68425781 2.1590625 9.61851562 3.078125 9.55078125 C3.75359375 9.51339844 4.4290625 9.47601563 5.125 9.4375 C5.125 8.1175 5.125 6.7975 5.125 5.4375 C2.155 5.1075 -0.815 4.7775 -3.875 4.4375 C-3.875 5.0975 -3.875 5.7575 -3.875 6.4375 C-4.865 6.4375 -5.855 6.4375 -6.875 6.4375 C-7.5 4.5625 -7.5 4.5625 -7.875 2.4375 C-5.20677541 -0.23072459 -3.71988779 0.07730818 0 0 Z " fill="#57776B" transform="translate(188.875,364.5625)"/>
<path d="M0 0 C10 0 10 0 13.0625 2.375 C16.17778965 6.59571501 16.39983064 9.84320995 16 15 C14.73914113 18.88764819 13.55196207 19.33602845 10 22 C6.7 22 3.4 22 0 22 C0 14.74 0 7.48 0 0 Z " fill="#F4F9F8" transform="translate(90,361)"/>
<path d="M0 0 C7.59 0 15.18 0 23 0 C23 75.57 23 151.14 23 229 C22.67 229 22.34 229 22 229 C21.99576806 227.84648576 21.99153612 226.69297152 21.98717594 225.5045023 C21.88659935 198.15039108 21.78090919 170.79630362 21.66888306 143.44223678 C21.65511273 140.07876022 21.64138575 136.71528349 21.62768555 133.35180664 C21.62359309 132.34735354 21.62359309 132.34735354 21.61941796 131.32260846 C21.5752882 120.46599571 21.53467347 109.6093725 21.49534739 98.7527414 C21.45494681 87.62096872 21.41071836 76.48921493 21.36312145 65.35747045 C21.33649481 59.10152544 21.31164119 52.84558438 21.29092598 46.58961678 C21.27139822 40.70873131 21.24726626 34.82788323 21.21950912 28.94703102 C21.21011815 26.78179348 21.2024503 24.61654771 21.19658089 22.45129776 C21.18835432 19.5088773 21.17408767 16.56654842 21.15821838 13.62416077 C21.15724028 12.75550119 21.15626217 11.88684161 21.15525442 10.99185902 C21.49847736 7.18771187 21.49847736 7.18771187 20 4 C13.19131493 3.01954935 6.77310962 2.82773103 0 4 C0 2.68 0 1.36 0 0 Z " fill="#56746A" transform="translate(396,91)"/>
<path d="M0 0 C0.495 1.485 0.495 1.485 1 3 C0.01 3.33 -0.98 3.66 -2 4 C-2.73323796 6.01508358 -2.73323796 6.01508358 -3 8 C-2.4225 7.855625 -1.845 7.71125 -1.25 7.5625 C0.83333333 7.04166667 2.91666667 6.52083333 5 6 C5 6.66 5 7.32 5 8 C3.33930863 9.34076834 1.67148578 10.67271298 0 12 C-1.48281798 13.69046575 -2.91930248 15.42244355 -4.3125 17.1875 C-9.26768613 23.36700591 -14.34193597 29.44607212 -20 35 C-20.33 33.68 -20.66 32.36 -21 31 C-23.99332739 31.9977758 -24.94766315 32.7522025 -27 35 C-27.33 34.67 -27.66 34.34 -28 34 C-29.32 35.65 -30.64 37.3 -32 39 C-32.66 38.67 -33.32 38.34 -34 38 C-33.11248047 37.02160156 -33.11248047 37.02160156 -32.20703125 36.0234375 C-27.01435723 30.30249591 -27.01435723 30.30249591 -22.0625 24.375 C-21.381875 23.59125 -20.70125 22.8075 -20 22 C-19.34 22 -18.68 22 -18 22 C-17.79117188 21.47277344 -17.58234375 20.94554687 -17.3671875 20.40234375 C-15.42927353 16.99715205 -12.81805324 14.38794554 -10.125 11.5625 C-6.58347566 7.81847975 -3.1585903 4.08175316 0 0 Z " fill="#668B78" transform="translate(182,186)"/>
<path d="M0 0 C5.61 0 11.22 0 17 0 C20.375 6.75 20.375 6.75 20.29296875 10.3046875 C20.28330078 11.05234375 20.27363281 11.8 20.26367188 12.5703125 C20.23853516 13.33085937 20.21339844 14.09140625 20.1875 14.875 C20.16719727 16.050625 20.16719727 16.050625 20.14648438 17.25 C20.11141789 19.16696782 20.05762072 21.08357751 20 23 C18.35 23 16.7 23 15 23 C15 17.39 15 11.78 15 6 C11.7 6 8.4 6 5 6 C5 11.61 5 17.22 5 23 C3.35 23 1.7 23 0 23 C0 15.41 0 7.82 0 0 Z " fill="#708981" transform="translate(340,365)"/>
<path d="M0 0 C2.33333333 0 4.66666667 0 7 0 C7.67933594 -0.03480469 8.35867187 -0.06960938 9.05859375 -0.10546875 C9.84363281 -0.13253906 10.62867188 -0.15960938 11.4375 -0.1875 C12.21996094 -0.22230469 13.00242188 -0.25710938 13.80859375 -0.29296875 C16.53473367 0.07148846 17.31838646 0.87612724 19 3 C20.1482685 5.296537 20.11561175 6.58313167 20.09765625 9.1328125 C20.09443359 9.93847656 20.09121094 10.74414062 20.08789062 11.57421875 C20.07951172 12.41597656 20.07113281 13.25773437 20.0625 14.125 C20.05798828 14.97449219 20.05347656 15.82398438 20.04882812 16.69921875 C20.03702874 18.79950909 20.01909306 20.8997633 20 23 C18.35 23 16.7 23 15 23 C14.93941406 21.78441406 14.87882813 20.56882812 14.81640625 19.31640625 C14.73201668 17.73175772 14.6473679 16.14712298 14.5625 14.5625 C14.52318359 13.76005859 14.48386719 12.95761719 14.44335938 12.13085938 C14.5945704 8.24760439 14.5945704 8.24760439 13 5 C10.69 5 8.38 5 6 5 C5.67 10.94 5.34 16.88 5 23 C3.35 23 1.7 23 0 23 C0 15.41 0 7.82 0 0 Z " fill="#6E8980" transform="translate(216,365)"/>
<path d="M0 0 C1.65 0 3.3 0 5 0 C5 7.59 5 15.18 5 23 C3.68 23 2.36 23 1 23 C1 22.34 1 21.68 1 21 C0.319375 21.515625 -0.36125 22.03125 -1.0625 22.5625 C-4.87319838 24.42730984 -6.9412538 24.05226753 -11 23 C-13.12486616 21.39738567 -13.90740201 20.56680588 -14.34057617 17.9152832 C-14.32486572 17.13499756 -14.30915527 16.35471191 -14.29296875 15.55078125 C-14.28330078 14.70322266 -14.27363281 13.85566406 -14.26367188 12.98242188 C-14.23853516 12.10134766 -14.21339844 11.22027344 -14.1875 10.3125 C-14.17396484 9.41982422 -14.16042969 8.52714844 -14.14648438 7.60742188 C-14.11114079 5.40433834 -14.06180493 3.20247418 -14 1 C-12.68 1 -11.36 1 -10 1 C-9.93941406 2.04800781 -9.87882812 3.09601563 -9.81640625 4.17578125 C-9.73198262 5.55470048 -9.64733553 6.93360605 -9.5625 8.3125 C-9.52318359 9.00279297 -9.48386719 9.69308594 -9.44335938 10.40429688 C-9.25072585 13.47161535 -8.97677283 16.06968152 -8 19 C-5.69 18.34 -3.38 17.68 -1 17 C-0.67 11.39 -0.34 5.78 0 0 Z " fill="#6A857C" transform="translate(312,365)"/>
<path d="M0 0 C0.66 0.33 1.32 0.66 2 1 C2 2.32 2 3.64 2 5 C-1.3 4.67 -4.6 4.34 -8 4 C-8 5.32 -8 6.64 -8 8 C-6.39125 8.433125 -6.39125 8.433125 -4.75 8.875 C-1.90599636 9.72820109 0.43508983 10.5636503 3 12 C3.29264736 14.92647363 3.5101953 17.15050499 3 20 C0.44118591 22.62278444 -1.32330073 23.96210849 -5.07421875 24.046875 C-8.17958527 23.70247206 -11.04034721 22.98655093 -14 22 C-13.67 20.68 -13.34 19.36 -13 18 C-9.37 18.33 -5.74 18.66 -2 19 C-2 17.68 -2 16.36 -2 15 C-2.721875 14.896875 -3.44375 14.79375 -4.1875 14.6875 C-8.22741361 13.69996556 -11.07173897 11.92826103 -14 9 C-14.49334144 5.87550419 -14.24864748 4.41817986 -12.625 1.6875 C-8.63620266 -0.87672686 -4.62364355 -0.49136282 0 0 Z " fill="#5A7B6D" transform="translate(413,365)"/>
<path d="M0 0 C0.95648438 -0.02578125 1.91296875 -0.0515625 2.8984375 -0.078125 C6.11892517 0.30944085 7.29674313 1.0256777 9.625 3.25 C10.07910156 5.42651367 10.07910156 5.42651367 10.015625 7.91796875 C9.99628906 9.25698242 9.99628906 9.25698242 9.9765625 10.62304688 C9.94304687 11.55181641 9.90953125 12.48058594 9.875 13.4375 C9.85695313 14.37787109 9.83890625 15.31824219 9.8203125 16.28710938 C9.7731655 18.60909889 9.70738231 20.9290369 9.625 23.25 C8.305 23.25 6.985 23.25 5.625 23.25 C5.625 22.59 5.625 21.93 5.625 21.25 C4.944375 21.765625 4.26375 22.28125 3.5625 22.8125 C-0.17618832 24.64207088 -2.37943413 24.11178872 -6.375 23.25 C-7.375 15.5 -7.375 15.5 -7.375 13.25 C-2.94423077 11.15769231 -2.94423077 11.15769231 -0.0625 11.625 C0.494375 11.83125 1.05125 12.0375 1.625 12.25 C-0.025 12.58 -1.675 12.91 -3.375 13.25 C-3.375 14.9 -3.375 16.55 -3.375 18.25 C0.20827753 19.25217064 0.20827753 19.25217064 3.625 18.25 C4.01671753 16.59608154 4.34557545 14.92654729 4.625 13.25 C4.955 12.26 5.285 11.27 5.625 10.25 C5.23102665 7.61195411 5.23102665 7.61195411 4.625 5.25 C3.3875 5.25 2.15 5.25 0.875 5.25 C-1.875 5.25 -4.625 5.25 -7.375 5.25 C-7.375 3.93 -7.375 2.61 -7.375 1.25 C-4.80935275 -0.03282363 -2.86466931 0.04608047 0 0 Z " fill="#547469" transform="translate(373.375,364.75)"/>
<path d="M0 0 C3.69426861 0.60190625 4.5666339 2.26184693 6.73828125 5.23828125 C9.34129122 8.82091173 9.34129122 8.82091173 12.3359375 12.05859375 C13.61328125 13.42578125 13.61328125 13.42578125 13.92578125 16.48828125 C13.61328125 19.42578125 13.61328125 19.42578125 11.61328125 21.42578125 C11.28328125 20.10578125 10.95328125 18.78578125 10.61328125 17.42578125 C11.27328125 17.42578125 11.93328125 17.42578125 12.61328125 17.42578125 C12.61328125 16.43578125 12.61328125 15.44578125 12.61328125 14.42578125 C11.62328125 14.75578125 10.63328125 15.08578125 9.61328125 15.42578125 C9.24203125 14.49765625 8.87078125 13.56953125 8.48828125 12.61328125 C6.30385166 8.89975095 4.54609366 7.99890621 0.61328125 6.42578125 C0.79890625 7.47765625 0.98453125 8.52953125 1.17578125 9.61328125 C1.56718636 13.02409717 1.62939098 15.19270482 0.61328125 18.42578125 C-0.04671875 19.08578125 -0.70671875 19.74578125 -1.38671875 20.42578125 C-1.38671875 21.41578125 -1.38671875 22.40578125 -1.38671875 23.42578125 C-2.14984375 23.05453125 -2.91296875 22.68328125 -3.69921875 22.30078125 C-4.58609375 22.01203125 -5.47296875 21.72328125 -6.38671875 21.42578125 C-7.37671875 22.08578125 -8.36671875 22.74578125 -9.38671875 23.42578125 C-11.57421875 23.05078125 -11.57421875 23.05078125 -13.38671875 22.42578125 C-11.90950453 18.97376486 -9.94877874 16.77616189 -7.26171875 14.17578125 C-6.53726563 13.469375 -5.8128125 12.76296875 -5.06640625 12.03515625 C-4.51210937 11.5040625 -3.9578125 10.97296875 -3.38671875 10.42578125 C-4.37679538 9.43570462 -5.41316961 8.49264411 -6.44921875 7.55078125 C-8.38671875 5.42578125 -8.38671875 5.42578125 -8.38671875 2.42578125 C-7.72671875 2.42578125 -7.06671875 2.42578125 -6.38671875 2.42578125 C-6.38671875 3.08578125 -6.38671875 3.74578125 -6.38671875 4.42578125 C-5.82984375 3.76578125 -5.27296875 3.10578125 -4.69921875 2.42578125 C-2.38671875 0.42578125 -2.38671875 0.42578125 0 0 Z " fill="#82A790" transform="translate(224.38671875,208.57421875)"/>
<path d="M0 0 C1.65 0 3.3 0 5 0 C5.08725659 4.2290362 5.1404789 8.45784012 5.1875 12.6875 C5.21263672 13.88568359 5.23777344 15.08386719 5.26367188 16.31835938 C5.27817383 18.05375977 5.27817383 18.05375977 5.29296875 19.82421875 C5.3086792 20.88729248 5.32438965 21.95036621 5.34057617 23.0456543 C4.8410782 27.37857543 3.03924205 29.96075795 0 33 C-4.33643601 33.31537716 -6.32653229 33.44897847 -10 31 C-9.67 29.68 -9.34 28.36 -9 27 C-6.03 26.67 -3.06 26.34 0 26 C0 17.42 0 8.84 0 0 Z " fill="#56756B" transform="translate(260,356)"/>
<path d="M0 0 C1.22958773 3.72602342 0.99703922 7.11324958 0.75 11 C0.68296875 12.216875 0.6159375 13.43375 0.546875 14.6875 C-0.01490515 18.09028262 -0.62842581 19.55798301 -3 22 C-3.99 22.495 -3.99 22.495 -5 23 C-7.33569717 27.49837974 -8.36093691 30.10062712 -7 35 C-7.33 35.99 -7.66 36.98 -8 38 C-8 37.34 -8 36.68 -8 36 C-10.78597892 36.3596778 -11.82812576 36.81043848 -13.74609375 38.92578125 C-14.30425781 39.71339844 -14.86242187 40.50101562 -15.4375 41.3125 C-18.00990489 44.80520492 -20.52729943 47.36916623 -24 50 C-24 50.66 -24 51.32 -24 52 C-25.3303125 52.5878125 -25.3303125 52.5878125 -26.6875 53.1875 C-30.12129608 55.06636955 -32.36541769 57.13295455 -35 60 C-35 59.34 -35 58.68 -35 58 C-35.66 57.67 -36.32 57.34 -37 57 C-36.14728516 56.36384766 -36.14728516 56.36384766 -35.27734375 55.71484375 C-30.6250315 52.18095047 -26.39027023 48.56636633 -22.41015625 44.28515625 C-21 43 -21 43 -19 43 C-18.773125 42.319375 -18.54625 41.63875 -18.3125 40.9375 C-17.00435058 38.00973702 -15.33027477 35.72035591 -13.4296875 33.15625 C-10.47903871 28.70609117 -8.31516259 23.80111586 -6 19 C-5.48050781 18.02933594 -4.96101563 17.05867188 -4.42578125 16.05859375 C-2.88903434 12.76195587 -2.0736477 9.6770226 -1.3125 6.125 C-0.93544922 4.39636719 -0.93544922 4.39636719 -0.55078125 2.6328125 C-0.36902344 1.76398438 -0.18726563 0.89515625 0 0 Z " fill="#85A48F" transform="translate(263,226)"/>
<path d="M0 0 C3 3.75 3 3.75 3 6 C3.99 6 4.98 6 6 6 C6 5.34 6 4.68 6 4 C12.75 3.875 12.75 3.875 15 5 C15 6.32 15 7.64 15 9 C14.14535156 9.20496094 13.29070312 9.40992188 12.41015625 9.62109375 C11.30542969 9.89050781 10.20070312 10.15992188 9.0625 10.4375 C7.96035156 10.70433594 6.85820312 10.97117187 5.72265625 11.24609375 C3.10578746 11.72995725 3.10578746 11.72995725 2 13 C1.63239269 15.32817964 1.29758419 17.6618385 1 20 C0.67 19.34 0.34 18.68 0 18 C-0.66 18 -1.32 18 -2 18 C-2.33 19.65 -2.66 21.3 -3 23 C-3.33 23 -3.66 23 -4 23 C-4.33 16.07 -4.66 9.14 -5 2 C-3.35 1.34 -1.7 0.68 0 0 Z " fill="#F3FBF9" transform="translate(179,365)"/>
<path d="M0 0 C1.65 0 3.3 0 5 0 C5 11.22 5 22.44 5 34 C3.35 34 1.7 34 0 34 C0 22.78 0 11.56 0 0 Z " fill="#5D7C71" transform="translate(389,354)"/>
<path d="M0 0 C3.0625 0.5 3.0625 0.5 5.4375 2.0625 C7.6710569 5.41283535 7.55648209 7.5481433 7.0625 11.5 C6 13.9375 6 13.9375 4.0625 15.5 C0.5625 16.0625 0.5625 16.0625 -2.9375 15.5 C-5.37301204 12.82879325 -5.87530059 11.00796189 -6.3125 7.4375 C-5.7251978 2.83696609 -4.71758413 0.80299304 0 0 Z " fill="#F2F7F4" transform="translate(280.9375,368.5)"/>
<path d="M0 0 C1.32 0 2.64 0 4 0 C4.33 8.25 4.66 16.5 5 25 C7.97 25.33 10.94 25.66 14 26 C14.33 26.99 14.66 27.98 15 29 C10.51793698 31.24103151 5.01109879 30 0 30 C0 20.1 0 10.2 0 0 Z " fill="#4E7165" transform="translate(85,358)"/>
<path d="M0 0 C1.65 0 3.3 0 5 0 C5.33 0.66 5.66 1.32 6 2 C6.66 1.34 7.32 0.68 8 0 C10.625 -0.125 10.625 -0.125 13 0 C13 1.65 13 3.3 13 5 C12.030625 5.28875 11.06125 5.5775 10.0625 5.875 C6.89335797 6.64214682 6.89335797 6.64214682 6 9 C5.76970044 11.37123246 5.58880058 13.74741943 5.4375 16.125 C5.35371094 17.40632813 5.26992188 18.68765625 5.18359375 20.0078125 C5.09271484 21.48894531 5.09271484 21.48894531 5 23 C3.35 23 1.7 23 0 23 C0 15.41 0 7.82 0 0 Z " fill="#6A887E" transform="translate(323,365)"/>
<path d="M0 0 C1.875 1.0625 1.875 1.0625 3 3 C3.3931463 6.60384106 3.39343329 9.09741776 1.9375 12.4375 C0 14 0 14 -3.5 14.5 C-7 14 -7 14 -8.9375 12.4375 C-10.40708036 9.06610977 -10.46268457 6.63537875 -10 3 C-7.15121935 -0.39662308 -4.26361577 -0.54429137 0 0 Z " fill="#F2F8F6" transform="translate(130,370)"/>
<path d="M0 0 C15 0 15 0 20 2 C19.67 3.98 19.34 5.96 19 8 C18.01 7.34 17.02 6.68 16 6 C12.7 5.67 9.4 5.34 6 5 C6 12.26 6 19.52 6 27 C5.67 27 5.34 27 5 27 C5 18.75 5 10.5 5 2 C3.68 2 2.36 2 1 2 C1 11.9 1 21.8 1 32 C5.29 32 9.58 32 14 32 C14 32.33 14 32.66 14 33 C9.38 33 4.76 33 0 33 C0 22.11 0 11.22 0 0 Z " fill="#769288" transform="translate(84,356)"/>
<path d="M0 0 C0.66 0.33 1.32 0.66 2 1 C1.814375 1.61875 1.62875 2.2375 1.4375 2.875 C0.76313824 5.04160178 0.76313824 5.04160178 2 7 C1.979375 7.94875 1.95875 8.8975 1.9375 9.875 C1.99919206 12.95960319 2.41229856 14.41998516 4 17 C6.64 17 9.28 17 12 17 C11.67 17.99 11.34 18.98 11 20 C11.99 20.66 12.98 21.32 14 22 C12.35962605 23.64037395 10.50523159 23.24911331 8.25 23.3125 C4.57647013 23.2810126 3.22502371 23.13595183 0 21.1875 C-4.18228971 16.61312063 -4.41517733 13.65838817 -4.3359375 7.67578125 C-3.89570125 4.16924831 -2.59468297 2.35143144 0 0 Z " fill="#5C796E" transform="translate(274,366)"/>
<path d="M0 0 C18.15 0 36.3 0 55 0 C55 5.61 55 11.22 55 17 C54.67 17 54.34 17 54 17 C54 12.05 54 7.1 54 2 C52.02 2.33 50.04 2.66 48 3 C46.37774222 3.09282608 44.75278156 3.14722696 43.12792969 3.16113281 C42.21388367 3.17074036 41.29983765 3.1803479 40.35809326 3.19024658 C39.38914124 3.19449646 38.42018921 3.19874634 37.421875 3.203125 C36.41408997 3.20882507 35.40630493 3.21452515 34.36798096 3.22039795 C32.24663331 3.229813 30.12527127 3.23636797 28.00390625 3.24023438 C24.74714265 3.25000858 21.49099253 3.28109199 18.234375 3.3125 C16.17187874 3.31902397 14.10937799 3.32427682 12.046875 3.328125 C11.06982605 3.3404718 10.0927771 3.3528186 9.08612061 3.36553955 C8.18468323 3.36253845 7.28324585 3.35953735 6.35449219 3.35644531 C5.55984558 3.36009094 4.76519897 3.36373657 3.94647217 3.36749268 C3.30413635 3.24622009 2.66180054 3.12494751 2 3 C1.34 2.01 0.68 1.02 0 0 Z " fill="#4E6E60" transform="translate(314,91)"/>
<path d="M0 0 C4 1 4 1 5.89226913 1.52764034 C9.51055658 2.33852804 13.20835276 2.12921352 16.89941406 2.11352539 C18.24628296 2.11374443 18.24628296 2.11374443 19.62036133 2.1139679 C22.58547387 2.11327176 25.55052344 2.10549329 28.515625 2.09765625 C30.57257045 2.09579101 32.62951635 2.09436761 34.6864624 2.09336853 C40.09844185 2.0895517 45.51039444 2.07972851 50.92236328 2.06866455 C56.44563432 2.05843252 61.96890971 2.05386707 67.4921875 2.04882812 C78.3281368 2.03810552 89.16406616 2.02103907 100 2 C100 2.66 100 3.32 100 4 C66.67 4 33.34 4 -1 4 C-0.67 2.68 -0.34 1.36 0 0 Z " fill="#557266" transform="translate(83,320)"/>
<path d="M0 0 C4.24134665 1.06033666 4.59887262 1.25214379 6.9375 4.5625 C7.69740234 5.63564453 7.69740234 5.63564453 8.47265625 6.73046875 C15 16.42966752 15 16.42966752 15 19 C15.66 19 16.32 19 17 19 C17.33 20.32 17.66 21.64 18 23 C16.68 23 15.36 23 14 23 C14 22.34 14 21.68 14 21 C13.34 21 12.68 21 12 21 C10.875 16.25 10.875 16.25 12 14 C10.35 14.33 8.7 14.66 7 15 C7 12.36 7 9.72 7 7 C6.34 7 5.68 7 5 7 C5.33 7.99 5.66 8.98 6 10 C5.01 10.33 4.02 10.66 3 11 C2.34 9.68 1.68 8.36 1 7 C-0.65 8.32 -2.3 9.64 -4 11 C-4 10.34 -4 9.68 -4 9 C-4.99 8.67 -5.98 8.34 -7 8 C-4.69 5.36 -2.38 2.72 0 0 Z " fill="#6A947B" transform="translate(190,177)"/>
<path d="M0 0 C0.99 0 1.98 0 3 0 C3 0.99 3 1.98 3 3 C-37.26 3 -77.52 3 -119 3 C-119 2.67 -119 2.34 -119 2 C-91.09006108 0.90378669 -63.23343807 1.02689797 -35.3125 1.4375 C-34.44051468 1.45031384 -33.56852936 1.46312767 -32.67012024 1.4763298 C-21.77985471 1.63759362 -10.88984505 1.81251223 0 2 C0 1.34 0 0.68 0 0 Z " fill="#5A776A" transform="translate(416,321)"/>
<path d="M0 0 C3.13293435 5.14755093 3.37993835 9.05250622 3.1875 14.875 C3.17396484 15.65875 3.16042969 16.4425 3.14648438 17.25 C3.11141789 19.16696782 3.05762072 21.08357751 3 23 C1.35 23 -0.3 23 -2 23 C-2.33 16.73 -2.66 10.46 -3 4 C-4.98 3.34 -6.96 2.68 -9 2 C-5.5647952 -0.29013653 -4.014669 -0.17842973 0 0 Z " fill="#648276" transform="translate(357,365)"/>
<path d="M0 0 C0.33 0.99 0.66 1.98 1 3 C0.01 3.33 -0.98 3.66 -2 4 C-2.73323796 6.01508358 -2.73323796 6.01508358 -3 8 C-2.4225 7.855625 -1.845 7.71125 -1.25 7.5625 C0.83333333 7.04166667 2.91666667 6.52083333 5 6 C5 6.66 5 7.32 5 8 C4.29875 8.556875 3.5975 9.11375 2.875 9.6875 C-0.56327758 12.45307109 -3.21727633 15.59570576 -6 19 C-6.66 18.67 -7.32 18.34 -8 18 C-7.67 16.35 -7.34 14.7 -7 13 C-7.66 13 -8.32 13 -9 13 C-9.268125 13.928125 -9.53625 14.85625 -9.8125 15.8125 C-11.4351145 20.16793893 -11.4351145 20.16793893 -14 22 C-17.1875 23.1875 -17.1875 23.1875 -20 24 C-20 23.34 -20 22.68 -20 22 C-19.34 22 -18.68 22 -18 22 C-17.79117188 21.47277344 -17.58234375 20.94554687 -17.3671875 20.40234375 C-15.42927353 16.99715205 -12.81805324 14.38794554 -10.125 11.5625 C-6.58347566 7.81847975 -3.1585903 4.08175316 0 0 Z " fill="#799C8A" transform="translate(182,186)"/>
<path d="M0 0 C-0.66 0.66 -1.32 1.32 -2 2 C-1.01 2.33 -0.02 2.66 1 3 C0.45276317 6.37462715 -0.0549 8.08235 -2 11 C-4.9375 11.4375 -4.9375 11.4375 -8 11 C-9.75 9 -9.75 9 -11 7 C-11.66 7 -12.32 7 -13 7 C-12.67 7.99 -12.34 8.98 -12 10 C-12.66 10.66 -13.32 11.32 -14 12 C-14.34547908 6.73144399 -14.34547908 6.73144399 -14 4 C-10.14654532 -0.26632482 -5.4348937 -0.12352031 0 0 Z " fill="#627C73" transform="translate(194,374)"/>
<path d="M0 0 C1.65 0 3.3 0 5 0 C5 7.59 5 15.18 5 23 C3.35 23 1.7 23 0 23 C0 15.41 0 7.82 0 0 Z " fill="#68857A" transform="translate(205,365)"/>
<path d="M0 0 C2 3 2 3 1.75 4.875 C1.5025 5.57625 1.255 6.2775 1 7 C0.773125 7.886875 0.54625 8.77375 0.3125 9.6875 C-1 12 -1 12 -4 12.9375 C-4.99 12.958125 -5.98 12.97875 -7 13 C-7.66 12.34 -8.32 11.68 -9 11 C-8.625 8.375 -8.625 8.375 -8 6 C-9.32 6 -10.64 6 -12 6 C-11.814375 7.11375 -11.62875 8.2275 -11.4375 9.375 C-11 13 -11 13 -12 15 C-14 12 -14 12 -14 8.5 C-13 5 -13 5 -10.375 3.0625 C-6.72732029 1.91415639 -3.80130783 1.77192153 0 2 C0 1.34 0 0.68 0 0 Z " fill="#66857A" transform="translate(378,372)"/>
<path d="M0 0 C3.16115776 1.36983503 3.9927092 1.9890638 6 5 C6.54618606 8.39210287 6.53580892 11.6065435 6 15 C3.83107475 17.95214826 2.24779691 19.43281959 -1.0625 20.9375 C-3.52513785 21.01693993 -4.91836944 20.26384713 -7 19 C-5.68 19 -4.36 19 -3 19 C-2.690625 18.195625 -2.38125 17.39125 -2.0625 16.5625 C-1 14 -1 14 0 13 C0.16129174 8.80641479 -0.1572664 5.09327749 -1 1 C-0.67 0.67 -0.34 0.34 0 0 Z " fill="#5E8075" transform="translate(132,367)"/>
<path d="M0 0 C0.66 0 1.32 0 2 0 C3.00295086 13.34282847 3.11527017 26.62334 3 40 C1.515 40.495 1.515 40.495 0 41 C0 27.47 0 13.94 0 0 Z " fill="#4C7060" transform="translate(396,152)"/>
<path d="M0 0 C8.58 0 17.16 0 26 0 C26.33 8.91 26.66 17.82 27 27 C26.34 27 25.68 27 25 27 C24.14694832 24.09330538 23.92710285 21.68951127 24.12109375 18.671875 C24.16943359 17.87265625 24.21777344 17.0734375 24.26757812 16.25 C24.32365234 15.425 24.37972656 14.6 24.4375 13.75 C24.48970703 12.90953125 24.54191406 12.0690625 24.59570312 11.203125 C24.72495689 9.1350648 24.86174274 7.0674778 25 5 C24.34 5 23.68 5 23 5 C23 4.01 23 3.02 23 2 C16.73 2 10.46 2 4 2 C4 2.66 4 3.32 4 4 C3.01 4 2.02 4 1 4 C0.67 4.99 0.34 5.98 0 7 C0 4.69 0 2.38 0 0 Z " fill="#EDFBF0" transform="translate(297,233)"/>
<path d="M0 0 C1.98 0 3.96 0 6 0 C6 5.28 6 10.56 6 16 C5.67 16 5.34 16 5 16 C5 11.05 5 6.1 5 1 C3.68 1 2.36 1 1 1 C1 6.61 1 12.22 1 18 C0.67 18 0.34 18 0 18 C-0.66 14.7 -1.32 11.4 -2 8 C-2.33 12.29 -2.66 16.58 -3 21 C-7 22 -7 22 -9 21 C-8.01 19.7625 -8.01 19.7625 -7 18.5 C-4.37824305 14.59052497 -4.62684839 11.62708002 -5 7 C-5.41731018 4.64470719 -5.41731018 4.64470719 -6 3 C-4.35 3 -2.7 3 -1 3 C-0.67 2.01 -0.34 1.02 0 0 Z " fill="#C7D7D0" transform="translate(297,365)"/>
<path d="M0 0 C13.2 0 26.4 0 40 0 C39.67 0.66 39.34 1.32 39 2 C27.78 2.33 16.56 2.66 5 3 C4.67 3.66 4.34 4.32 4 5 C3.34 4.34 2.68 3.68 2 3 C1.34 3.66 0.68 4.32 0 5 C0 3.35 0 1.7 0 0 Z " fill="#4A6F5E" transform="translate(82,91)"/>
<path d="M0 0 C1.32 0 2.64 0 4 0 C4.03738281 1.02480469 4.07476562 2.04960937 4.11328125 3.10546875 C4.17897079 4.46618062 4.24541709 5.82685611 4.3125 7.1875 C4.33505859 7.86103516 4.35761719 8.53457031 4.38085938 9.22851562 C4.61595554 13.60985323 5.42442686 16.44391376 8 20 C6.35 20 4.7 20 3 20 C3 19.34 3 18.68 3 18 C2.01 17.67 1.02 17.34 0 17 C0 11.39 0 5.78 0 0 Z " fill="#4E7366" transform="translate(298,366)"/>
<path d="M0 0 C3.69426861 0.60190625 4.5666339 2.26184693 6.73828125 5.23828125 C9.34129122 8.82091173 9.34129122 8.82091173 12.3359375 12.05859375 C13.61328125 13.42578125 13.61328125 13.42578125 13.92578125 16.48828125 C13.61328125 19.42578125 13.61328125 19.42578125 11.61328125 21.42578125 C11.28328125 20.10578125 10.95328125 18.78578125 10.61328125 17.42578125 C11.27328125 17.42578125 11.93328125 17.42578125 12.61328125 17.42578125 C12.61328125 16.43578125 12.61328125 15.44578125 12.61328125 14.42578125 C11.62328125 14.75578125 10.63328125 15.08578125 9.61328125 15.42578125 C9.24203125 14.51828125 8.87078125 13.61078125 8.48828125 12.67578125 C6.34376669 8.95862269 4.23136303 7.6280919 0.61328125 5.42578125 C0.28328125 4.76578125 -0.04671875 4.10578125 -0.38671875 3.42578125 C0.27328125 3.42578125 0.93328125 3.42578125 1.61328125 3.42578125 C1.61328125 2.76578125 1.61328125 2.10578125 1.61328125 1.42578125 C0.62328125 1.42578125 -0.36671875 1.42578125 -1.38671875 1.42578125 C-1.81984375 3.12734375 -1.81984375 3.12734375 -2.26171875 4.86328125 C-2.63296875 6.03890625 -3.00421875 7.21453125 -3.38671875 8.42578125 C-4.37671875 8.92078125 -4.37671875 8.92078125 -5.38671875 9.42578125 C-8.38671875 5.80078125 -8.38671875 5.80078125 -8.38671875 2.42578125 C-7.72671875 2.42578125 -7.06671875 2.42578125 -6.38671875 2.42578125 C-6.38671875 3.08578125 -6.38671875 3.74578125 -6.38671875 4.42578125 C-5.82984375 3.76578125 -5.27296875 3.10578125 -4.69921875 2.42578125 C-2.38671875 0.42578125 -2.38671875 0.42578125 0 0 Z " fill="#96AF9C" transform="translate(224.38671875,208.57421875)"/>
<path d="M0 0 C1.32 0 2.64 0 4 0 C4 7.59 4 15.18 4 23 C3.67 23 3.34 23 3 23 C2.93941406 21.85660156 2.87882812 20.71320313 2.81640625 19.53515625 C2.73201572 18.04425695 2.64736698 16.55337225 2.5625 15.0625 C2.52318359 14.30775391 2.48386719 13.55300781 2.44335938 12.77539062 C2.55961976 9.08055813 2.55961976 9.08055813 1 6 C0.67 6.66 0.34 7.32 0 8 C-0.99 8.28875 -1.98 8.5775 -3 8.875 C-6.26925252 10.68320329 -6.26925252 10.68320329 -6.6171875 13.86328125 C-6.85404139 16.91726097 -6.99050324 19.93729426 -7 23 C-7.33 23 -7.66 23 -8 23 C-8.08119503 20.75059705 -8.13927819 18.50035129 -8.1875 16.25 C-8.22230469 14.99703125 -8.25710938 13.7440625 -8.29296875 12.453125 C-7.98733997 8.85078049 -7.60246517 7.45515582 -5 5 C-2.3125 4.75 -2.3125 4.75 0 5 C0 3.35 0 1.7 0 0 Z " fill="#D9E9E4" transform="translate(336,365)"/>
<path d="M0 0 C0.33 0 0.66 0 1 0 C1 4.62 1 9.24 1 14 C2.32 14.66 3.64 15.32 5 16 C5 19.3 5 22.6 5 26 C4.01 25.67 3.02 25.34 2 25 C1.01 27.475 1.01 27.475 0 30 C-0.66 29.67 -1.32 29.34 -2 29 C-1.505 27.515 -1.505 27.515 -1 26 C-0.85013589 24.0093556 -0.75171962 22.01464609 -0.68359375 20.01953125 C-0.62075195 18.27446289 -0.62075195 18.27446289 -0.55664062 16.49414062 C-0.51732422 15.27919922 -0.47800781 14.06425781 -0.4375 12.8125 C-0.39431641 11.58595703 -0.35113281 10.35941406 -0.30664062 9.09570312 C-0.2004691 6.06391619 -0.09842048 3.03204685 0 0 Z " fill="#E1EFEB" transform="translate(265,356)"/>
<path d="M0 0 C3 3 3 3 3.23291016 5.15722656 C3.16894043 5.97674805 3.1049707 6.79626953 3.0390625 7.640625 C2.97976563 8.54683594 2.92046875 9.45304688 2.859375 10.38671875 C2.78203125 11.33160156 2.7046875 12.27648437 2.625 13.25 C2.48577543 15.10890588 2.35283107 16.96829415 2.2265625 18.828125 C2.16629883 19.71564453 2.10603516 20.60316406 2.04394531 21.51757812 C1.91443305 24.25702854 1.91443305 24.25702854 2.7109375 27.921875 C2.80632812 28.93765625 2.90171875 29.9534375 3 31 C1.68 32.32 0.36 33.64 -1 35 C-0.67 23.45 -0.34 11.9 0 0 Z " fill="#ABC7B1" transform="translate(265,189)"/>
<path d="M0 0 C0.33 0.66 0.66 1.32 1 2 C1.66 2 2.32 2 3 2 C3 2.66 3 3.32 3 4 C3.66 4 4.32 4 5 4 C5 8.29 5 12.58 5 17 C3.35 17 1.7 17 0 17 C0 11.39 0 5.78 0 0 Z " fill="#5E7D71" transform="translate(156,371)"/>
<path d="M0 0 C1.32 0.33 2.64 0.66 4 1 C3.50886719 1.54140625 3.01773438 2.0828125 2.51171875 2.640625 C0.6332388 5.57241283 0.68939275 7.30299691 0.8125 10.75 C0.83957031 11.73484375 0.86664063 12.7196875 0.89453125 13.734375 C0.92933594 14.48203125 0.96414062 15.2296875 1 16 C0.34 16 -0.32 16 -1 16 C-1 15.01 -1 14.02 -1 13 C-2.94999129 13.19471111 -2.94999129 13.19471111 -5 14 C-6.28436734 15.9837767 -6.28436734 15.9837767 -7 18 C-7.66 17.67 -8.32 17.34 -9 17 C-8.52949219 16.46890625 -8.05898437 15.9378125 -7.57421875 15.390625 C-5.6598427 12.48343358 -5.29754261 10.18260923 -4.8125 6.75 C-4.65394531 5.67234375 -4.49539062 4.5946875 -4.33203125 3.484375 C-4.22246094 2.66453125 -4.11289063 1.8446875 -4 1 C-2.68 1.33 -1.36 1.66 0 2 C0 1.34 0 0.68 0 0 Z " fill="#E1EFEB" transform="translate(115,367)"/>
<path d="M0 0 C0.99 0 1.98 0 3 0 C3 0.66 3 1.32 3 2 C3.66 2 4.32 2 5 2 C4.84660156 2.67417969 4.69320313 3.34835937 4.53515625 4.04296875 C3.91516143 7.46877952 3.6647426 10.83893447 3.4375 14.3125 C3.35371094 15.56675781 3.26992188 16.82101562 3.18359375 18.11328125 C3.12300781 19.06589844 3.06242187 20.01851563 3 21 C2.01 21 1.02 21 0 21 C0 14.07 0 7.14 0 0 Z " fill="#517066" transform="translate(341,366)"/>
<path d="M0 0 C0.99 0 1.98 0 3 0 C3 0.99 3 1.98 3 3 C3.66 3 4.32 3 5 3 C4.84660156 3.51046875 4.69320312 4.0209375 4.53515625 4.546875 C3.83094597 7.7749338 3.65111796 10.95418001 3.4375 14.25 C3.35371094 15.51328125 3.26992187 16.7765625 3.18359375 18.078125 C3.12300781 19.04234375 3.06242188 20.0065625 3 21 C2.01 21 1.02 21 0 21 C0 14.07 0 7.14 0 0 Z " fill="#4A6F63" transform="translate(217,366)"/>
<path d="M0 0 C1.22958773 3.72602342 0.99703922 7.11324958 0.75 11 C0.68296875 12.216875 0.6159375 13.43375 0.546875 14.6875 C-0.01490515 18.09028262 -0.62842581 19.55798301 -3 22 C-3.66 22.33 -4.32 22.66 -5 23 C-5.474375 23.804375 -5.94875 24.60875 -6.4375 25.4375 C-8 28 -8 28 -11 30 C-10.7215625 29.46117187 -10.443125 28.92234375 -10.15625 28.3671875 C-8.83288419 25.65786425 -7.6612233 22.90768753 -6.5 20.125 C-6.0771875 19.11695313 -5.654375 18.10890625 -5.21875 17.0703125 C-3.46882346 12.66184372 -1.98795126 8.23579806 -0.875 3.625 C-0.58625 2.42875 -0.2975 1.2325 0 0 Z " fill="#8EAB95" transform="translate(263,226)"/>
<path d="M0 0 C7.26 0 14.52 0 22 0 C22 1.65 22 3.3 22 5 C21.41734375 4.84402344 20.8346875 4.68804687 20.234375 4.52734375 C13.25387856 2.87002463 7.08826822 3.09874253 0 4 C0 2.68 0 1.36 0 0 Z " fill="#4C6F61" transform="translate(396,91)"/>
<path d="M0 0 C0.99 0.33 1.98 0.66 3 1 C2.67 3.31 2.34 5.62 2 8 C1.01 8.33 0.02 8.66 -1 9 C-2.20882096 11.00016466 -2.20882096 11.00016466 -3 13 C-4.32 12.34 -5.64 11.68 -7 11 C-6.67 10.01 -6.34 9.02 -6 8 C-8.97 8 -11.94 8 -15 8 C-15 7.67 -15 7.34 -15 7 C-14.32453125 6.95101563 -13.6490625 6.90203125 -12.953125 6.8515625 C-12.06109375 6.77679688 -11.1690625 6.70203125 -10.25 6.625 C-9.36828125 6.55539062 -8.4865625 6.48578125 -7.578125 6.4140625 C-4.97534682 5.99604055 -3.21757058 5.41118128 -1 4 C-0.19471111 1.94999129 -0.19471111 1.94999129 0 0 Z " fill="#55756A" transform="translate(105,376)"/>
<path d="M0 0 C0 5.61 0 11.22 0 17 C-0.33 17 -0.66 17 -1 17 C-1.04898437 16.38511719 -1.09796875 15.77023437 -1.1484375 15.13671875 C-1.22320312 14.32847656 -1.29796875 13.52023437 -1.375 12.6875 C-1.44460938 11.88699219 -1.51421875 11.08648437 -1.5859375 10.26171875 C-1.89564426 7.72775559 -1.89564426 7.72775559 -4 5 C-4 4.01 -4 3.02 -4 2 C-5.32 2.33 -6.64 2.66 -8 3 C-8.33 7.62 -8.66 12.24 -9 17 C-9.33 17 -9.66 17 -10 17 C-10 11.39 -10 5.78 -10 0 C-7 -1 -7 -1 0 0 Z " fill="#DBECE6" transform="translate(355,371)"/>
<path d="M0 0 C1.32 0 2.64 0 4 0 C4.02714735 2.22909871 4.04646254 4.45829367 4.0625 6.6875 C4.07410156 7.92886719 4.08570313 9.17023438 4.09765625 10.44921875 C4.01478673 13.46235454 3.70839449 16.08275339 3 19 C1 18 1 18 0 15 C-0.07029121 12.42734182 -0.09370832 9.88358569 -0.0625 7.3125 C-0.05798828 6.61060547 -0.05347656 5.90871094 -0.04882812 5.18554688 C-0.03706927 3.45699462 -0.01913454 1.72848635 0 0 Z " fill="#507166" transform="translate(313,366)"/>
<path d="M0 0 C0 2.64 0 5.28 0 8 C-1.6037331 8.64690922 -3.20800306 9.29248764 -4.8125 9.9375 C-5.70582031 10.29714844 -6.59914062 10.65679687 -7.51953125 11.02734375 C-9.3270909 11.73613486 -11.15807409 12.3860247 -13 13 C-11.46781315 9.36938333 -9.2816856 7.0136227 -6.5 4.25 C-5.7059375 3.45078125 -4.911875 2.6515625 -4.09375 1.828125 C-2 0 -2 0 0 0 Z " fill="#E9F7EB" transform="translate(224,218)"/>
<path d="M0 0 C0.66 0.33 1.32 0.66 2 1 C2 2.32 2 3.64 2 5 C-1.3 4.67 -4.6 4.34 -8 4 C-8.33 5.32 -8.66 6.64 -9 8 C-9.66 6.02 -10.32 4.04 -11 2 C-11 2.99 -11 3.98 -11 5 C-11.66 5 -12.32 5 -13 5 C-13.33 6.32 -13.66 7.64 -14 9 C-14.34098943 5.93109509 -14.21961817 4.36935783 -12.625 1.6875 C-8.63620266 -0.87672686 -4.62364355 -0.49136282 0 0 Z " fill="#769287" transform="translate(413,365)"/>
<path d="M0 0 C10.56 0 21.12 0 32 0 C32 0.33 32 0.66 32 1 C29.50072231 1.33970765 27.00080405 1.67188032 24.5 2 C23.45585937 2.14308594 23.45585937 2.14308594 22.390625 2.2890625 C15.20175467 3.2209531 8.15448402 3.46009878 1 2 C0.67 1.34 0.34 0.68 0 0 Z " fill="#4D7061" transform="translate(112,300)"/>
<path d="M0 0 C0.99386719 0.02707031 1.98773438 0.05414063 3.01171875 0.08203125 C4.15060547 0.13423828 4.15060547 0.13423828 5.3125 0.1875 C5.3125 2.80863708 4.99957555 4.69685112 4.3125 7.1875 C3.9825 6.8575 3.6525 6.5275 3.3125 6.1875 C0.64191149 6.04634839 -2.01182238 6.14502893 -4.6875 6.1875 C-4.3575 4.8675 -4.0275 3.5475 -3.6875 2.1875 C-6.56170123 4.90354715 -6.56170123 4.90354715 -8.6875 8.1875 C-9.3475 7.8575 -10.0075 7.5275 -10.6875 7.1875 C-8.16861825 1.5684561 -6.31328865 -0.22282195 0 0 Z " fill="#6A877D" transform="translate(126.6875,364.8125)"/>
<path d="M0 0 C9.42755197 0.86037853 9.42755197 0.86037853 12.5625 1.625 C16.41992806 2.21845047 20.15717941 1.54419028 24 1 C24 1.33 24 1.66 24 2 C27.3 2.33 30.6 2.66 34 3 C34 3.33 34 3.66 34 4 C29.64596135 4.08755672 25.29215123 4.14057969 20.9375 4.1875 C19.09381836 4.22520508 19.09381836 4.22520508 17.21289062 4.26367188 C10.70222829 4.31631874 5.72313493 4.23999169 0 1 C0 0.67 0 0.34 0 0 Z " fill="#E3F1EC" transform="translate(326,298)"/>
<path d="M0 0 C8.25 0 16.5 0 25 0 C25.33 0.99 25.66 1.98 26 3 C22.04180389 3.08678303 18.08385066 3.14031733 14.125 3.1875 C12.43310547 3.22520508 12.43310547 3.22520508 10.70703125 3.26367188 C9.09248047 3.27817383 9.09248047 3.27817383 7.4453125 3.29296875 C5.95281982 3.31653442 5.95281982 3.31653442 4.43017578 3.34057617 C3.62821777 3.22818604 2.82625977 3.1157959 2 3 C1.34 2.01 0.68 1.02 0 0 Z " fill="#537565" transform="translate(314,91)"/>
<path d="M0 0 C1.75 0.0859375 1.75 0.0859375 4 0.375 C5.20462891 0.52388672 5.20462891 0.52388672 6.43359375 0.67578125 C7.70396484 0.83626953 7.70396484 0.83626953 9 1 C10.6871883 1.19028439 12.37467635 1.37793608 14.0625 1.5625 C15.361875 1.706875 16.66125 1.85125 18 2 C18 2.66 18 3.32 18 4 C17.22914063 3.98839844 16.45828125 3.97679687 15.6640625 3.96484375 C14.66117188 3.95582031 13.65828125 3.94679688 12.625 3.9375 C11.12839844 3.92009766 11.12839844 3.92009766 9.6015625 3.90234375 C7.01567547 3.81993398 7.01567547 3.81993398 5 5 C5 4.34 5 3.68 5 3 C3.35 3 1.7 3 0 3 C0 10.59 0 18.18 0 26 C-0.33 26 -0.66 26 -1 26 C-1.02886751 21.85418113 -1.04675327 17.70838784 -1.0625 13.5625 C-1.07087891 12.37849609 -1.07925781 11.19449219 -1.08789062 9.97460938 C-1.09111328 8.84990234 -1.09433594 7.72519531 -1.09765625 6.56640625 C-1.10289307 5.52427979 -1.10812988 4.48215332 -1.11352539 3.40844727 C-1 1 -1 1 0 0 Z " fill="#DAE7E3" transform="translate(216,362)"/>
<path d="M0 0 C3.84762566 3.4201117 6.60634022 7.46774256 9 12 C9 12.66 9 13.32 9 14 C9.66 14 10.32 14 11 14 C11.33 15.32 11.66 16.64 12 18 C10.68 18 9.36 18 8 18 C8 17.34 8 16.68 8 16 C7.34 16 6.68 16 6 16 C4.875 11.25 4.875 11.25 6 9 C4.35 9.33 2.7 9.66 1 10 C0.67 6.7 0.34 3.4 0 0 Z " fill="#87A693" transform="translate(196,182)"/>
<path d="M0 0 C0.99 0 1.98 0 3 0 C4.44207941 2.88415883 4.09394887 5.41721528 4.0625 8.625 C4.05347656 9.81351562 4.04445312 11.00203125 4.03515625 12.2265625 C4.02355469 13.14179688 4.01195312 14.05703125 4 15 C2.68 15 1.36 15 0 15 C0 10.05 0 5.1 0 0 Z " fill="#506E62" transform="translate(171,373)"/>
<path d="M0 0 C0.33 0 0.66 0 1 0 C1 1.65 1 3.3 1 5 C1.86625 4.505 2.7325 4.01 3.625 3.5 C7.10749623 1.9522239 9.24759458 1.73197104 13 2 C12.1028125 2.433125 12.1028125 2.433125 11.1875 2.875 C8.80672208 4.04742026 8.80672208 4.04742026 6 6 C5.26393501 9.56769552 5.26393501 9.56769552 5 13 C4.67 12.34 4.34 11.68 4 11 C3.34 11 2.68 11 2 11 C1.67 12.65 1.34 14.3 1 16 C0.67 16 0.34 16 0 16 C0 10.72 0 5.44 0 0 Z " fill="#DFEEE9" transform="translate(175,372)"/>
<path d="M0 0 C0 1.98 0 3.96 0 6 C-6.625 6.25 -6.625 6.25 -10 4 C-9.67 2.68 -9.34 1.36 -9 0 C-2.25 -1.125 -2.25 -1.125 0 0 Z " fill="#5B7B71" transform="translate(260,383)"/>
<path d="M0 0 C2.05078125 0.03255208 4.1015625 0.06510417 6.15234375 0.09765625 C5.27734375 4.84765625 5.27734375 4.84765625 4.15234375 7.09765625 C2.15279629 7.14019981 0.15192739 7.13846408 -1.84765625 7.09765625 C-2.84765625 6.09765625 -2.84765625 6.09765625 -2.97265625 3.59765625 C-2.80017347 0.14800071 -2.80017347 0.14800071 0 0 Z " fill="#E4F2EE" transform="translate(187.84765625,377.90234375)"/>
<path d="M0 0 C0.99 0 1.98 0 3 0 C3 1.65 3 3.3 3 5 C3.598125 5.04125 4.19625 5.0825 4.8125 5.125 C7 6 7 6 8.75 8.9375 C10 12 10 12 10 14 C10.66 14.33 11.32 14.66 12 15 C11.67 15.66 11.34 16.32 11 17 C7.16960592 15.72320197 7.01242585 14.40564374 5 11 C3.35353315 9.31337542 1.68816933 7.64488294 0 6 C-0.66 5.01 -1.32 4.02 -2 3 C-1.34 2.01 -0.68 1.02 0 0 Z " fill="#84A18D" transform="translate(237,130)"/>
<path d="M0 0 C2.64 0 5.28 0 8 0 C8.1875 2.375 8.1875 2.375 8 5 C5 7 5 7 2.3125 6.625 C1.549375 6.41875 0.78625 6.2125 0 6 C-1.125 2.25 -1.125 2.25 0 0 Z " fill="#DEEDE9" transform="translate(370,378)"/>
<path d="M0 0 C2.4294516 3.6441774 2.16179575 5.71241272 2 10 C1.01 10.495 1.01 10.495 0 11 C0 10.01 0 9.02 0 8 C-0.66 8 -1.32 8 -2 8 C-2.061875 7.071875 -2.061875 7.071875 -2.125 6.125 C-2.41375 5.42375 -2.7025 4.7225 -3 4 C-5.99615946 2.6954344 -5.99615946 2.6954344 -9 2 C-5.54970958 -0.30019361 -4.05445642 -0.43132515 0 0 Z " fill="#607E73" transform="translate(357,365)"/>
<path d="M0 0 C0.99 0.33 1.98 0.66 3 1 C3 8.59 3 16.18 3 24 C2.01 24.33 1.02 24.66 0 25 C0 16.75 0 8.5 0 0 Z " fill="#507362" transform="translate(396,208)"/>
<path d="M0 0 C0.33 0 0.66 0 1 0 C1.33 8.25 1.66 16.5 2 25 C-0.31 25.33 -2.62 25.66 -5 26 C-5.66 26.33 -6.32 26.66 -7 27 C-7.66 26.34 -8.32 25.68 -9 25 C-9 24.34 -9 23.68 -9 23 C-7.35 22.34 -5.7 21.68 -4 21 C-4 21.66 -4 22.32 -4 23 C-2.68 23 -1.36 23 0 23 C0 15.41 0 7.82 0 0 Z " fill="#D4E5E0" transform="translate(317,365)"/>
<path d="M0 0 C3.63 0.33 7.26 0.66 11 1 C11.33 2.32 11.66 3.64 12 5 C6.96488101 6.0070238 3.76052962 5.97387813 -1 4 C-0.67 2.68 -0.34 1.36 0 0 Z " fill="#59776D" transform="translate(400,383)"/>
<path d="M0 0 C1.50433594 0.01353516 1.50433594 0.01353516 3.0390625 0.02734375 C3.80992187 0.03894531 4.58078125 0.05054688 5.375 0.0625 C5.045 1.7125 4.715 3.3625 4.375 5.0625 C0.375 5.0625 -3.625 5.0625 -7.625 5.0625 C-7.625 3.7425 -7.625 2.4225 -7.625 1.0625 C-4.98041621 -0.25979189 -2.94738699 -0.03427194 0 0 Z " fill="#638177" transform="translate(373.625,364.9375)"/>
<path d="M0 0 C3.3 0.33 6.6 0.66 10 1 C9.67 1.99 9.34 2.98 9 4 C9.38932856 6.14255793 9.38932856 6.14255793 10 8 C6.20696275 6.99806563 3.28463659 6.18975773 0 4 C0 2.68 0 1.36 0 0 Z " fill="#DEECE7" transform="translate(405,369)"/>
<path d="M0 0 C0.33 0 0.66 0 1 0 C1 6.27 1 12.54 1 19 C-1.31 19.66 -3.62 20.32 -6 21 C-6 20.34 -6 19.68 -6 19 C-6.5775 19.37125 -7.155 19.7425 -7.75 20.125 C-10 21 -10 21 -12.25 20.125 C-12.8275 19.75375 -13.405 19.3825 -14 19 C-12.3603125 18.5359375 -12.3603125 18.5359375 -10.6875 18.0625 C-8.44592006 17.41662103 -6.2130649 16.7376883 -4 16 C-4 16.66 -4 17.32 -4 18 C-2.68 18 -1.36 18 0 18 C0 12.06 0 6.12 0 0 Z " fill="#C6D9D3" transform="translate(383,370)"/>
<path d="M0 0 C0.33 0 0.66 0 1 0 C1 6.27 1 12.54 1 19 C0.01 18.67 -0.98 18.34 -2 18 C-2.3690205 5.33029613 -2.3690205 5.33029613 0 0 Z " fill="#527167" transform="translate(234,368)"/>
<path d="M0 0 C0.99 0.33 1.98 0.66 3 1 C2.34 1 1.68 1 1 1 C1 3.97 1 6.94 1 10 C1.66 10 2.32 10 3 10 C3 13.63 3 17.26 3 21 C2.01 21 1.02 21 0 21 C0 14.07 0 7.14 0 0 Z " fill="#4C6E62" transform="translate(324,366)"/>
<path d="M0 0 C2.10022886 3.43673813 2.24140313 6.13616813 2.1875 10.125 C2.17783203 11.70667969 2.17783203 11.70667969 2.16796875 13.3203125 C2 16 2 16 1 18 C-1.31 18 -3.62 18 -6 18 C-6 17.67 -6 17.34 -6 17 C-4.35 17 -2.7 17 -1 17 C-1.01160156 15.85660156 -1.02320313 14.71320313 -1.03515625 13.53515625 C-1.04453288 12.04427246 -1.05363321 10.55338691 -1.0625 9.0625 C-1.07087891 8.30775391 -1.07925781 7.55300781 -1.08789062 6.77539062 C-1.09652441 4.85005687 -1.05224333 2.92464419 -1 1 C-0.67 0.67 -0.34 0.34 0 0 Z " fill="#CEDFD8" transform="translate(162,371)"/>
<path d="M0 0 C2.475 0.99 2.475 0.99 5 2 C5 4.64 5 7.28 5 10 C3.68 10 2.36 10 1 10 C1 9.34 1 8.68 1 8 C-0.32 7.34 -1.64 6.68 -3 6 C-2.34 5.67 -1.68 5.34 -1 5 C-0.34444881 2.47266765 -0.34444881 2.47266765 0 0 Z " fill="#5C7C71" transform="translate(378,378)"/>
<path d="M0 0 C0.99 0.33 1.98 0.66 3 1 C3 1.66 3 2.32 3 3 C5.97 2.01 8.94 1.02 12 0 C12.33 1.32 12.66 2.64 13 4 C10 6 10 6 6.5 5.8125 C1.86005089 4.73536896 1.86005089 4.73536896 0 2 C0 1.34 0 0.68 0 0 Z " fill="#607E74" transform="translate(298,383)"/>
<path d="M0 0 C0.928125 0.0825 1.85625 0.165 2.8125 0.25 C3.1425 0.91 3.4725 1.57 3.8125 2.25 C3.008125 2.70375 2.20375 3.1575 1.375 3.625 C-1.27606572 4.99725665 -1.27606572 4.99725665 -2.1875 7.25 C-3.1775 7.25 -4.1675 7.25 -5.1875 7.25 C-5.5175 8.24 -5.8475 9.23 -6.1875 10.25 C-6.40681821 7.03333296 -6.45578383 4.81637697 -5.0625 1.875 C-3.1875 0.25 -3.1875 0.25 0 0 Z " fill="#DBE9E3" transform="translate(281.1875,368.75)"/>
<path d="M0 0 C0.33 0 0.66 0 1 0 C1 5.28 1 10.56 1 16 C-0.65 16 -2.3 16 -4 16 C-3.01 15.67 -2.02 15.34 -1 15 C-1.33 14.01 -1.66 13.02 -2 12 C-2.25343766 7.43812214 -2.00169177 4.12848928 0 0 Z " fill="#648176" transform="translate(147,372)"/>
<path d="M0 0 C0.06058594 0.59167969 0.12117187 1.18335938 0.18359375 1.79296875 C0.62012371 5.90978208 1.08671346 9.95544533 2 14 C-0.30465234 11.03786426 -2.27590448 7.97847243 -4.1875 4.75 C-4.71730469 3.85796875 -5.24710938 2.9659375 -5.79296875 2.046875 C-6.39044922 1.03367188 -6.39044922 1.03367188 -7 0 C-3.86650268 -1.04449911 -3.01031744 -0.93423645 0 0 Z " fill="#8FAA97" transform="translate(255,148)"/>
<path d="M0 0 C1.66088045 0.36106097 3.32618981 0.70462173 5 1 C5 0.34 5 -0.32 5 -1 C5.66 -1 6.32 -1 7 -1 C7 0.65 7 2.3 7 4 C7.99 4 8.98 4 10 4 C10 4.66 10 5.32 10 6 C9.47792969 5.81824219 8.95585937 5.63648437 8.41796875 5.44921875 C2.34250187 3.37440957 -3.79305783 1.63584831 -10 0 C-5.94166206 -2.34772668 -4.35546537 -1.68885392 0 0 Z " fill="#819E8F" transform="translate(204,114)"/>
<path d="M0 0 C0.66 0.99 1.32 1.98 2 3 C-0.64 3 -3.28 3 -6 3 C-6.28875 3.598125 -6.5775 4.19625 -6.875 4.8125 C-8 7 -8 7 -10 10 C-10.48468708 3.57789614 -10.48468708 3.57789614 -8.375 1.0625 C-5.35429678 -0.28886723 -3.27337643 -0.42696214 0 0 Z " fill="#E1F1ED" transform="translate(130,370)"/>
<path d="M0 0 C0.66 0 1.32 0 2 0 C2.70125 0.825 3.4025 1.65 4.125 2.5 C7.15572376 5.13541196 7.57163804 5.34560497 11.3125 5.3125 C12.529375 5.209375 13.74625 5.10625 15 5 C14 7 14 7 12.15234375 7.6328125 C11.42144531 7.79523438 10.69054687 7.95765625 9.9375 8.125 C9.20402344 8.29257812 8.47054687 8.46015625 7.71484375 8.6328125 C7.14894531 8.75398438 6.58304688 8.87515625 6 9 C5.67 8.34 5.34 7.68 5 7 C4.01 7 3.02 7 2 7 C0.25 4.625 0.25 4.625 -1 2 C-0.67 1.34 -0.34 0.68 0 0 Z " fill="#EDF7F4" transform="translate(177,383)"/>
<path d="M0 0 C2.4375 0.3125 2.4375 0.3125 4.4375 2.3125 C4.58267744 5.2218558 4.62380796 8.032446 4.5625 10.9375 C4.55347656 11.73929687 4.54445312 12.54109375 4.53515625 13.3671875 C4.51156223 15.34908523 4.47569065 17.33082981 4.4375 19.3125 C4.1075 19.3125 3.7775 19.3125 3.4375 19.3125 C3.1075 14.0325 2.7775 8.7525 2.4375 3.3125 C1.7775 3.9725 1.1175 4.6325 0.4375 5.3125 C0.1075 4.6525 -0.2225 3.9925 -0.5625 3.3125 C-1.5525 2.9825 -2.5425 2.6525 -3.5625 2.3125 C-3.8925 3.3025 -4.2225 4.2925 -4.5625 5.3125 C-4.8925 4.6525 -5.2225 3.9925 -5.5625 3.3125 C-3.75137927 1.02476855 -2.95529457 0.36040178 0 0 Z " fill="#C1D3CD" transform="translate(226.5625,368.6875)"/>
<path d="M0 0 C3.1875 0.875 3.1875 0.875 6 2 C1.88881081 5.52387645 -1.46508112 8 -7 8 C-7 7.34 -7 6.68 -7 6 C-5.68 5.34 -4.36 4.68 -3 4 C-3 3.34 -3 2.68 -3 2 C-2.01 1.34 -1.02 0.68 0 0 Z " fill="#749382" transform="translate(199,265)"/>
<path d="M0 0 C0.99 0 1.98 0 3 0 C3.144375 0.61875 3.28875 1.2375 3.4375 1.875 C3.93152225 4.03258322 3.93152225 4.03258322 5 6 C4.195625 6.12375 3.39125 6.2475 2.5625 6.375 C1.2940625 6.684375 1.2940625 6.684375 0 7 C-0.33 7.66 -0.66 8.32 -1 9 C-1.99 8.67 -2.98 8.34 -4 8 C-3.625 6.0625 -3.625 6.0625 -3 4 C-2.34 3.67 -1.68 3.34 -1 3 C-0.67 2.01 -0.34 1.02 0 0 Z " fill="#6C917C" transform="translate(183,186)"/>
<path d="M0 0 C0.33 0.99 0.66 1.98 1 3 C1.66 3 2.32 3 3 3 C1.92598892 5.91517292 1.22189824 7.77810176 -1 10 C-3.125 9.625 -3.125 9.625 -5 9 C-4.3566152 7.686298 -3.71021785 6.37407102 -3.0625 5.0625 C-2.70285156 4.33160156 -2.34320313 3.60070312 -1.97265625 2.84765625 C-1 1 -1 1 0 0 Z " fill="#537164" transform="translate(289,377)"/>
<path d="M0 0 C3 1 3 1 4.16796875 2.7265625 C6.19205434 8.25716255 5.68078586 14.32640144 3.5 19.6875 C3.005 20.450625 2.51 21.21375 2 22 C1.375 20.1875 1.375 20.1875 1 18 C1.66 17.01 2.32 16.02 3 15 C3.44572827 9.47296949 3.26526505 6.62579216 0 2 C0 1.34 0 0.68 0 0 Z " fill="#5B766C" transform="translate(106,361)"/>
<path d="M0 0 C1.32 0.33 2.64 0.66 4 1 C3.07544441 2.508013 2.1349253 4.00624917 1.1875 5.5 C0.66542969 6.3353125 0.14335937 7.170625 -0.39453125 8.03125 C-0.92433594 8.6809375 -1.45414063 9.330625 -2 10 C-2.99 10 -3.98 10 -5 10 C-4.01 7.36 -3.02 4.72 -2 2 C-1.34 2 -0.68 2 0 2 C0 1.34 0 0.68 0 0 Z " fill="#82A28C" transform="translate(228,240)"/>
<path d="M0 0 C-0.8125 2.4375 -0.8125 2.4375 -2 5 C-2.99 5.33 -3.98 5.66 -5 6 C-5.66 5.67 -6.32 5.34 -7 5 C-7 5.66 -7 6.32 -7 7 C-8.96466413 8.06775224 -10.96855359 9.06553465 -13 10 C-13.66 9.67 -14.32 9.34 -15 9 C-12.87885041 7.49428254 -10.75346385 5.99531321 -8.625 4.5 C-8.02171875 4.07074219 -7.4184375 3.64148438 -6.796875 3.19921875 C-2.2265625 0 -2.2265625 0 0 0 Z " fill="#84A193" transform="translate(170,225)"/>
<path d="M0 0 C5.28 0 10.56 0 16 0 C16 0.66 16 1.32 16 2 C14.27277272 2.22384382 12.54303993 2.42839969 10.8125 2.625 C9.36810547 2.79902344 9.36810547 2.79902344 7.89453125 2.9765625 C4.75924677 3.00194942 2.80513465 2.34359283 0 1 C0 0.67 0 0.34 0 0 Z " fill="#557868" transform="translate(192,91)"/>
<path d="M0 0 C0 0.66 0 1.32 0 2 C-0.99 2 -1.98 2 -3 2 C-3 3.65 -3 5.3 -3 7 C-5.25 8.125 -5.25 8.125 -8 9 C-10.3125 8.125 -10.3125 8.125 -12 7 C-10.68 7 -9.36 7 -8 7 C-7.7525 6.21625 -7.505 5.4325 -7.25 4.625 C-6 2 -6 2 -4 0.6875 C-2 0 -2 0 0 0 Z " fill="#537569" transform="translate(137,379)"/>
<path d="M0 0 C0.33 0 0.66 0 1 0 C1 4.29 1 8.58 1 13 C0.01 13 -0.98 13 -2 13 C-2.05391993 11.20866022 -2.09275571 9.41686101 -2.125 7.625 C-2.14820313 6.62726563 -2.17140625 5.62953125 -2.1953125 4.6015625 C-2 2 -2 2 0 0 Z " fill="#4D7063" transform="translate(208,374)"/>
<path d="M0 0 C3.63 0 7.26 0 11 0 C10.67 0.66 10.34 1.32 10 2 C11.32 2.66 12.64 3.32 14 4 C13.67 4.66 13.34 5.32 13 6 C10.69 6 8.38 6 6 6 C6 5.01 6 4.02 6 3 C5.34 3 4.68 3 4 3 C4 2.34 4 1.68 4 1 C2.68 0.67 1.36 0.34 0 0 Z " fill="#819B92" transform="translate(340,365)"/>
<path d="M0 0 C1 3 1 3 1 6 C0.34 6 -0.32 6 -1 6 C-1.33 5.34 -1.66 4.68 -2 4 C-6.58544817 6.58110689 -6.58544817 6.58110689 -9 11 C-9.66 10.67 -10.32 10.34 -11 10 C-9.43989422 5.78771439 -6.5154607 3.65453155 -3 1 C-2.01 0.67 -1.02 0.34 0 0 Z " fill="#4C7162" transform="translate(383,290)"/>
<path d="M0 0 C2 1 2 1 3.1875 4.4375 C4 8 4 8 3 10 C-0.875 9.125 -0.875 9.125 -2 8 C-2.04063832 6.33382885 -2.042721 4.66611905 -2 3 C-1.34 3 -0.68 3 0 3 C0 2.01 0 1.02 0 0 Z " fill="#4C6D5E" transform="translate(402,367)"/>
<path d="M0 0 C0 0.66 0 1.32 0 2 C-0.886875 2.391875 -1.77375 2.78375 -2.6875 3.1875 C-6.12129608 5.06636955 -8.36541769 7.13295455 -11 10 C-11 9.34 -11 8.68 -11 8 C-11.66 7.67 -12.32 7.34 -13 7 C-11.59310148 5.82157218 -10.17406375 4.65762602 -8.75 3.5 C-7.96109375 2.8503125 -7.1721875 2.200625 -6.359375 1.53125 C-4 0 -4 0 0 0 Z " fill="#799783" transform="translate(239,276)"/>
<path d="M0 0 C1.125 1.75 1.125 1.75 2 4 C1.25 5.75 1.25 5.75 0 8 C-0.76401823 10.64859654 -1.37326869 13.31400868 -2 16 C-2.66 16 -3.32 16 -4 16 C-3.6083965 10.04492601 -2.62875405 5.37180176 0 0 Z " fill="#4B6F5F" transform="translate(397,261)"/>
<path d="M0 0 C0.66 1.32 1.32 2.64 2 4 C0.9171875 4.556875 0.9171875 4.556875 -0.1875 5.125 C-3.57954762 7.38636508 -5.50498266 9.79212057 -8 13 C-8.99 12.67 -9.98 12.34 -11 12 C-7.37 8.04 -3.74 4.08 0 0 Z " fill="#D9E9E1" transform="translate(179,201)"/>
<path d="M0 0 C0 0.33 0 0.66 0 1 C-1.093125 1.12375 -2.18625 1.2475 -3.3125 1.375 C-7.07381802 1.75464801 -7.07381802 1.75464801 -10 4 C-10.99 3.34 -11.98 2.68 -13 2 C-14.65549531 1.61500109 -16.3222433 1.27206865 -18 1 C-18 0.67 -18 0.34 -18 0 C-11.96496237 -1.50875941 -6.10261631 -0.64186094 0 0 Z " fill="#D8E7E2" transform="translate(170,364)"/>
<path d="M0 0 C0.33 0.66 0.66 1.32 1 2 C1.66 2.33 2.32 2.66 3 3 C3 3.99 3 4.98 3 6 C3.33 6.99 3.66 7.98 4 9 C2.68 9 1.36 9 0 9 C0 10.65 0 12.3 0 14 C-0.66 14 -1.32 14 -2 14 C-1.85866501 12.22880197 -1.71176792 10.45804713 -1.5625 8.6875 C-1.48128906 7.70136719 -1.40007812 6.71523437 -1.31640625 5.69921875 C-1 3 -1 3 0 0 Z " fill="#7EA08C" transform="translate(186,210)"/>
<path d="M0 0 C1.32 0.66 2.64 1.32 4 2 C3.84402344 2.69867188 3.68804687 3.39734375 3.52734375 4.1171875 C3.33269531 5.02726563 3.13804687 5.93734375 2.9375 6.875 C2.74027344 7.77992188 2.54304687 8.68484375 2.33984375 9.6171875 C1.76797843 12.01014125 1.76797843 12.01014125 3 14 C1.02 14.99 1.02 14.99 -1 16 C-0.67 10.72 -0.34 5.44 0 0 Z " fill="#85A592" transform="translate(189,188)"/>
<path d="M0 0 C0.33 0.99 0.66 1.98 1 3 C-1.68092691 5.68092691 -3.39167363 5.38670257 -7.125 5.625 C-8.22070312 5.69976562 -9.31640625 5.77453125 -10.4453125 5.8515625 C-11.28835938 5.90054687 -12.13140625 5.94953125 -13 6 C-13.66 4.68 -14.32 3.36 -15 2 C-14.00419922 2.16048828 -14.00419922 2.16048828 -12.98828125 2.32421875 C-7.29057602 3.16371708 -7.29057602 3.16371708 -1.875 1.5625 C-1.25625 1.046875 -0.6375 0.53125 0 0 Z " fill="#D9E6E2" transform="translate(415,385)"/>
<path d="M0 0 C0.33 0 0.66 0 1 0 C1.66 4.62 2.32 9.24 3 14 C0.525 13.01 0.525 13.01 -2 12 C-1.85904936 10.3745692 -1.71207913 8.74965949 -1.5625 7.125 C-1.48128906 6.22007812 -1.40007812 5.31515625 -1.31640625 4.3828125 C-1 2 -1 2 0 0 Z " fill="#F4FAF6" transform="translate(295,371)"/>
<path d="M0 0 C1.65 0 3.3 0 5 0 C5 1.65 5 3.3 5 5 C2.36 5.33 -0.28 5.66 -3 6 C-2.01 4.02 -1.02 2.04 0 0 Z " fill="#59746B" transform="translate(331,365)"/>
<path d="M0 0 C0.33 1.32 0.66 2.64 1 4 C0.34 4 -0.32 4 -1 4 C-1 4.66 -1 5.32 -1 6 C-0.01 6.33 0.98 6.66 2 7 C1.34 7.66 0.68 8.32 0 9 C-1.32 8.34 -2.64 7.68 -4 7 C-3.67 6.01 -3.34 5.02 -3 4 C-5.97 4 -8.94 4 -12 4 C-12 3.67 -12 3.34 -12 3 C-10.95199219 2.92652344 -10.95199219 2.92652344 -9.8828125 2.8515625 C-8.97273438 2.77679688 -8.06265625 2.70203125 -7.125 2.625 C-6.22007813 2.55539062 -5.31515625 2.48578125 -4.3828125 2.4140625 C-1.82058097 2.20431868 -1.82058097 2.20431868 0 0 Z " fill="#829C93" transform="translate(102,380)"/>
<path d="M0 0 C1.65 0.33 3.3 0.66 5 1 C4.67 2.65 4.34 4.3 4 6 C2.35 5.67 0.7 5.34 -1 5 C-0.67 3.35 -0.34 1.7 0 0 Z " fill="#6B7F78" transform="translate(205,355)"/>
<path d="M0 0 C0.33 0 0.66 0 1 0 C1.33 8.91 1.66 17.82 2 27 C1.34 27 0.68 27 0 27 C-0.99384397 23.74741974 -1.04826731 20.96534629 -0.87890625 17.578125 C-0.83056641 16.55332031 -0.78222656 15.52851563 -0.73242188 14.47265625 C-0.67634766 13.40917969 -0.62027344 12.34570312 -0.5625 11.25 C-0.51029297 10.17105469 -0.45808594 9.09210938 -0.40429688 7.98046875 C-0.27480531 5.32000578 -0.13984639 2.65993548 0 0 Z " fill="#DAEADF" transform="translate(322,233)"/>
<path d="M0 0 C1.09651823 3.41139003 0.94215473 6.20655581 0.5625 9.75 C0.46066406 10.73484375 0.35882813 11.7196875 0.25390625 12.734375 C0.12822266 13.85585937 0.12822266 13.85585937 0 15 C-0.99 15 -1.98 15 -3 15 C-3 15.99 -3 16.98 -3 18 C-3.66 18 -4.32 18 -5 18 C-4.80664062 17.3709375 -4.61328125 16.741875 -4.4140625 16.09375 C-2.7907875 10.75783615 -1.30539435 5.42240732 0 0 Z " fill="#9FBAA4" transform="translate(263,226)"/>
<path d="M0 0 C3 3 3 3 3.2487793 4.99291992 C3.19117432 5.73131104 3.13356934 6.46970215 3.07421875 7.23046875 C3.01943359 8.03291016 2.96464844 8.83535156 2.90820312 9.66210938 C2.83537109 10.49548828 2.76253906 11.32886719 2.6875 12.1875 C2.62626953 13.03248047 2.56503906 13.87746094 2.50195312 14.74804688 C2.34881209 16.83312095 2.17625843 18.91675276 2 21 C1.67 21 1.34 21 1 21 C0.67 14.07 0.34 7.14 0 0 Z " fill="#96B49D" transform="translate(265,189)"/>
<path d="M0 0 C0 0.99 0 1.98 0 3 C0.99 3.66 1.98 4.32 3 5 C2 6 2 6 -0.28515625 6.09765625 C-1.65994141 6.08025391 -1.65994141 6.08025391 -3.0625 6.0625 C-3.98160156 6.05347656 -4.90070313 6.04445313 -5.84765625 6.03515625 C-6.55792969 6.02355469 -7.26820313 6.01195312 -8 6 C-7.01 5.01 -6.02 4.02 -5 3 C-5.33 2.34 -5.66 1.68 -6 1 C-4.02 0.67 -2.04 0.34 0 0 Z " fill="#78958B" transform="translate(285,383)"/>
<path d="M0 0 C0.66 0.33 1.32 0.66 2 1 C1.01 3.31 0.02 5.62 -1 8 C-1.66 8 -2.32 8 -3 8 C-3 10.64 -3 13.28 -3 16 C-3.33 16 -3.66 16 -4 16 C-4.63019694 6.00437637 -4.63019694 6.00437637 -2 1.8125 C-1.34 1.214375 -0.68 0.61625 0 0 Z " fill="#718D83" transform="translate(274,366)"/>
<path d="M0 0 C0.66 0.33 1.32 0.66 2 1 C1 4 1 4 -2 6 C-3.33841672 5.68770276 -4.67139075 5.35169068 -6 5 C-8.68149993 5.38567131 -8.68149993 5.38567131 -11 6 C-10.67 5.34 -10.34 4.68 -10 4 C-7.67843403 3.59270772 -5.3431213 3.25561323 -3 3 C-3 2.34 -3 1.68 -3 1 C-2.01 0.67 -1.02 0.34 0 0 Z " fill="#849E92" transform="translate(216,289)"/>
<path d="M0 0 C0.5534764 2.07553648 1 3.84365964 1 6 C0.01 6.66 -0.98 7.32 -2 8 C-2.33 8.66 -2.66 9.32 -3 10 C-4.30915279 11.03145371 -5.64082143 12.03542166 -7 13 C-7.66 12.67 -8.32 12.34 -9 12 C-8.27683594 11.07767578 -8.27683594 11.07767578 -7.5390625 10.13671875 C-6.90742188 9.32847656 -6.27578125 8.52023438 -5.625 7.6875 C-4.99851563 6.88699219 -4.37203125 6.08648437 -3.7265625 5.26171875 C-2.42243282 3.55336788 -1.19218183 1.78827274 0 0 Z " fill="#DCEDE0" transform="translate(230,243)"/>
<path d="M0 0 C0.66 0.99 1.32 1.98 2 3 C0.68 4.32 -0.64 5.64 -2 7 C-2.33 6.67 -2.66 6.34 -3 6 C-4.32 7.65 -5.64 9.3 -7 11 C-7.66 10.67 -8.32 10.34 -9 10 C-6.03 6.7 -3.06 3.4 0 0 Z " fill="#7E9B8C" transform="translate(157,214)"/>
<path d="M0 0 C1.98 0 3.96 0 6 0 C6.33 1.65 6.66 3.3 7 5 C5.35333797 4.8864371 3.70763918 4.75882619 2.0625 4.625 C0.68771484 4.52058594 0.68771484 4.52058594 -0.71484375 4.4140625 C-1.84599609 4.20910156 -1.84599609 4.20910156 -3 4 C-3.33 3.34 -3.66 2.68 -4 2 C-2.68 2 -1.36 2 0 2 C0 1.34 0 0.68 0 0 Z " fill="#6A8B80" transform="translate(123,384)"/>
<path d="M0 0 C0.33 0 0.66 0 1 0 C1 6.93 1 13.86 1 21 C-0.32 21 -1.64 21 -3 21 C-3 20.01 -3 19.02 -3 18 C-2.01 18 -1.02 18 0 18 C0 12.06 0 6.12 0 0 Z " fill="#5B786E" transform="translate(393,367)"/>
<path d="M0 0 C0.33 0 0.66 0 1 0 C1 3.96 1 7.92 1 12 C2.98 12 4.96 12 7 12 C7 12.33 7 12.66 7 13 C4.36 13.33 1.72 13.66 -1 14 C-1.38133299 12.0085944 -1.71325582 10.00720923 -2 8 C-1.67 7.67 -1.34 7.34 -1 7 C-0.63239269 4.67182036 -0.29758419 2.3381615 0 0 Z " fill="#EBF6F3" transform="translate(338,376)"/>
<path d="M0 0 C0.66 0.33 1.32 0.66 2 1 C0.6302836 4.99500618 -1.25722422 7.80009492 -4 11 C-4 10.01 -4 9.02 -4 8 C-4.66 8 -5.32 8 -6 8 C-6 7.34 -6 6.68 -6 6 C-5.34 5.67 -4.68 5.34 -4 5 C-2.63755204 3.35704805 -1.30135125 1.69175663 0 0 Z " fill="#4D6D63" transform="translate(122,366)"/>
<path d="M0 0 C0.7425 0.0825 1.485 0.165 2.25 0.25 C1.92 0.91 1.59 1.57 1.25 2.25 C0.26 1.92 -0.73 1.59 -1.75 1.25 C-2.183125 2.9515625 -2.183125 2.9515625 -2.625 4.6875 C-2.99625 5.863125 -3.3675 7.03875 -3.75 8.25 C-4.74 8.745 -4.74 8.745 -5.75 9.25 C-8.75 5.625 -8.75 5.625 -8.75 2.25 C-8.09 2.25 -7.43 2.25 -6.75 2.25 C-6.75 2.91 -6.75 3.57 -6.75 4.25 C-6.193125 3.59 -5.63625 2.93 -5.0625 2.25 C-2.75 0.25 -2.75 0.25 0 0 Z " fill="#9CB9A3" transform="translate(224.75,208.75)"/>
<path d="M0 0 C0 0.33 0 0.66 0 1 C-0.94875 1.309375 -1.8975 1.61875 -2.875 1.9375 C-5.86080408 2.87394742 -5.86080408 2.87394742 -8 4 C-8 3.01 -8 2.02 -8 1 C-9.65 1 -11.3 1 -13 1 C-8.55169749 -1.96553501 -4.6635137 -3.04922049 0 0 Z " fill="#E3F0EB" transform="translate(336,364)"/>
<path d="M0 0 C4.62 0 9.24 0 14 0 C14.33 1.65 14.66 3.3 15 5 C14.01 4.34 13.02 3.68 12 3 C9.32376166 2.72038555 9.32376166 2.72038555 6.4375 2.8125 C5.46683594 2.81894531 4.49617188 2.82539063 3.49609375 2.83203125 C1.00110016 2.83855329 1.00110016 2.83855329 -1 4 C-0.67 2.68 -0.34 1.36 0 0 Z " fill="#DCE9E5" transform="translate(120,363)"/>
<path d="M0 0 C0.66 0.99 1.32 1.98 2 3 C0.92729525 7.290819 -0.9937694 11.07762195 -4.25 14.0625 C-4.8275 14.371875 -5.405 14.68125 -6 15 C-5.71382812 14.45859375 -5.42765625 13.9171875 -5.1328125 13.359375 C-3.8592283 10.70680653 -2.86453042 8.02068518 -1.875 5.25 C-1.34519531 3.77273437 -1.34519531 3.77273437 -0.8046875 2.265625 C-0.53914062 1.51796875 -0.27359375 0.7703125 0 0 Z " fill="#E2F0E6" transform="translate(237,228)"/>
<path d="M0 0 C1.32 0.33 2.64 0.66 4 1 C3.01 1.8971875 3.01 1.8971875 2 2.8125 C-0.3373846 4.87501834 -0.3373846 4.87501834 0 8 C-1.32 8.33 -2.64 8.66 -4 9 C-3.46930939 5.17902761 -2.50298434 2.93828597 0 0 Z " fill="#8DAB96" transform="translate(212,224)"/>
<path d="M0 0 C2.125 0.375 2.125 0.375 4 1 C3.67 1.33 3.34 1.66 3 2 C4.65 2.33 6.3 2.66 8 3 C8 3.33 8 3.66 8 4 C6.02 4 4.04 4 2 4 C2 4.66 2 5.32 2 6 C1.01 6 0.02 6 -1 6 C-1.625 4.125 -1.625 4.125 -2 2 C-1.34 1.34 -0.68 0.68 0 0 Z " fill="#788E86" transform="translate(183,365)"/>
<path d="M0 0 C3.3 0 6.6 0 10 0 C10 1.32 10 2.64 10 4 C6.44219804 3.39009109 3.3171411 2.4216319 0 1 C0 0.67 0 0.34 0 0 Z " fill="#58796E" transform="translate(405,366)"/>
<path d="M0 0 C4.75 0.875 4.75 0.875 7 2 C7 3.65 7 5.3 7 7 C5.35 6.67 3.7 6.34 2 6 C1.34 4.02 0.68 2.04 0 0 Z " fill="#56746A" transform="translate(376,366)"/>
<path d="M0 0 C0.99 0 1.98 0 3 0 C3.66 0.99 4.32 1.98 5 3 C3.35 4.98 1.7 6.96 0 9 C-0.66 7.68 -1.32 6.36 -2 5 C-1.34 5 -0.68 5 0 5 C-0.2784375 4.0409375 -0.2784375 4.0409375 -0.5625 3.0625 C-0.7790625 2.0415625 -0.7790625 2.0415625 -1 1 C-0.67 0.67 -0.34 0.34 0 0 Z " fill="#6E8E7E" transform="translate(163,212)"/>
<path d="M0 0 C-0.33 1.98 -0.66 3.96 -1 6 C-1.66 6 -2.32 6 -3 6 C-3 5.34 -3 4.68 -3 4 C-3.66 4 -4.32 4 -5 4 C-5.33 2.68 -5.66 1.36 -6 0 C-3.50907189 -1.24546405 -2.58919267 -0.7767578 0 0 Z " fill="#4C7062" transform="translate(162,369)"/>
<path d="M0 0 C0.33 0 0.66 0 1 0 C1.62033314 8.87421022 1.62033314 8.87421022 -0.6875 13.0625 C-3.20795098 15.1742292 -4.75525016 15.72960418 -8 16 C-4 12 -4 12 -2.40625 10.65625 C-0.59499277 8.52299148 -0.51279215 7.07653173 -0.3125 4.3125 C-0.24675781 3.50425781 -0.18101562 2.69601562 -0.11328125 1.86328125 C-0.07589844 1.24839844 -0.03851563 0.63351562 0 0 Z " fill="#D5E4DF" transform="translate(138,373)"/>
<path d="M0 0 C0.92538169 3.70152678 1.08174162 4.63458162 0 8 C0.66 8.33 1.32 8.66 2 9 C1.01 9.99 0.02 10.98 -1 12 C-1.99 11.67 -2.98 11.34 -4 11 C-2.68 7.37 -1.36 3.74 0 0 Z " fill="#5A786B" transform="translate(393,269)"/>
<path d="M0 0 C0.99 0.33 1.98 0.66 3 1 C3.33333333 2.33333333 3.66666667 3.66666667 4 5 C4.99 5.33 5.98 5.66 7 6 C6.01 6.33 5.02 6.66 4 7 C3.67 7.99 3.34 8.98 3 10 C0.96564469 6.27034861 0 4.33094958 0 0 Z " fill="#99B8A2" transform="translate(257,162)"/>
<path d="M0 0 C6.75 -0.125 6.75 -0.125 9 1 C9 2.32 9 3.64 9 5 C7.02 5 5.04 5 3 5 C3.66 4.67 4.32 4.34 5 4 C5 3.01 5 2.02 5 1 C3.35 1 1.7 1 0 1 C0 0.67 0 0.34 0 0 Z " fill="#CEE4DC" transform="translate(185,369)"/>
<path d="M0 0 C0.66 0 1.32 0 2 0 C4.1519437 3.22791555 4.20086443 4.28400809 4 8 C3.01 8.495 3.01 8.495 2 9 C2 8.01 2 7.02 2 6 C1.34 6 0.68 6 0 6 C-1.125 2.25 -1.125 2.25 0 0 Z " fill="#486B5D" transform="translate(355,367)"/>
<path d="M0 0 C-0.9520721 1.00596297 -1.91187346 2.00461563 -2.875 3 C-3.40867188 3.556875 -3.94234375 4.11375 -4.4921875 4.6875 C-6 6 -6 6 -8 6 C-8 4.68 -8 3.36 -8 2 C-3.82258065 -1.27419355 -3.82258065 -1.27419355 0 0 Z " fill="#E6F3EA" transform="translate(238,274)"/>
<path d="M0 0 C1.65 1.65 3.3 3.3 5 5 C4.01 5.66 3.02 6.32 2 7 C1.34 5.68 0.68 4.36 0 3 C-0.99 3.495 -0.99 3.495 -2 4 C-2.99 3.34 -3.98 2.68 -5 2 C-3.35 1.34 -1.7 0.68 0 0 Z " fill="#7E9988" transform="translate(175,222)"/>
<path d="M0 0 C1.3921875 0.2784375 1.3921875 0.2784375 2.8125 0.5625 C6.01343771 1.24123881 6.01343771 1.24123881 9 0 C9 0.99 9 1.98 9 3 C9.66 3 10.32 3 11 3 C11.33 3.99 11.66 4.98 12 6 C7.76570244 4.68938409 3.92592596 3.05643741 0 1 C0 0.67 0 0.34 0 0 Z " fill="#89A496" transform="translate(214,120)"/>
<path d="M0 0 C3.3 0.33 6.6 0.66 10 1 C10.33 1.99 10.66 2.98 11 4 C6.94393835 3.53199289 3.53411321 3.12046792 0 1 C0 0.67 0 0.34 0 0 Z " fill="#D5E8DE" transform="translate(326,298)"/>
<path d="M0 0 C0.66 0 1.32 0 2 0 C1.67 2.64 1.34 5.28 1 8 C-0.42944945 5.64561267 -1.08661261 4.51967567 -0.625 1.75 C-0.41875 1.1725 -0.2125 0.595 0 0 Z M-3 4 C-2.34 4.33 -1.68 4.66 -1 5 C-2.32 6.32 -3.64 7.64 -5 9 C-5.66 8.67 -6.32 8.34 -7 8 C-5.68 6.68 -4.36 5.36 -3 4 Z " fill="#DCEDE2" transform="translate(188,190)"/>
<path d="M0 0 C0.33 0.99 0.66 1.98 1 3 C0.01 3.33 -0.98 3.66 -2 4 C-3.22520264 7.00847418 -3.22520264 7.00847418 -4 10 C-5.32 9.67 -6.64 9.34 -8 9 C-5.36 6.03 -2.72 3.06 0 0 Z " fill="#8FA998" transform="translate(182,186)"/>
<path d="M0 0 C0.721875 0.474375 1.44375 0.94875 2.1875 1.4375 C4.89475226 2.94152903 6.96194275 3.56599182 10 4 C8.68 4.99 7.36 5.98 6 7 C4.68 6.34 3.36 5.68 2 5 C2 4.34 2 3.68 2 3 C1.01 3.33 0.02 3.66 -1 4 C-0.67 2.68 -0.34 1.36 0 0 Z " fill="#DFECE8" transform="translate(298,385)"/>
<path d="M0 0 C0.33 0.66 0.66 1.32 1 2 C-0.65 2 -2.3 2 -4 2 C-4.33 3.32 -4.66 4.64 -5 6 C-5.99 5.67 -6.98 5.34 -8 5 C-7.67 3.68 -7.34 2.36 -7 1 C-3.535 0.505 -3.535 0.505 0 0 Z " fill="#7D938C" transform="translate(258,382)"/>
<path d="M0 0 C0.66 0 1.32 0 2 0 C2 2.97 2 5.94 2 9 C1.01 8.67 0.02 8.34 -1 8 C-1.04241723 5.66705225 -1.04092937 3.33297433 -1 1 C-0.67 0.67 -0.34 0.34 0 0 Z " fill="#4F6F63" transform="translate(272,375)"/>
<path d="M0 0 C0.99 0.33 1.98 0.66 3 1 C3 1.99 3 2.98 3 4 C2.34 4 1.68 4 1 4 C0.67 5.98 0.34 7.96 0 10 C-0.33 10 -0.66 10 -1 10 C-2.23076923 4.58461538 -2.23076923 4.58461538 -1.0625 1.625 C-0.5365625 0.820625 -0.5365625 0.820625 0 0 Z " fill="#5F8172" transform="translate(289,368)"/>
<path d="M0 0 C1.79068573 2.6860286 2.66055791 4.6626589 3.625 7.6875 C3.88539063 8.49574219 4.14578125 9.30398438 4.4140625 10.13671875 C4.60742188 10.75160156 4.80078125 11.36648438 5 12 C4.34 12 3.68 12 3 12 C3 11.34 3 10.68 3 10 C2.01 10 1.02 10 0 10 C0 6.7 0 3.4 0 0 Z " fill="#8FA799" transform="translate(298,266)"/>
<path d="M0 0 C0.66 0.66 1.32 1.32 2 2 C-1.3 4.31 -4.6 6.62 -8 9 C-8.66 8.67 -9.32 8.34 -10 8 C-7.23900384 5.03448561 -4.51806824 2.99674143 -1 1 C-0.67 0.67 -0.34 0.34 0 0 Z " fill="#EFF7F0" transform="translate(226,252)"/>
<path d="M0 0 C3.3 0 6.6 0 10 0 C9.67 0.99 9.34 1.98 9 3 C8.2575 2.835 7.515 2.67 6.75 2.5 C3.80993422 1.88074304 3.80993422 1.88074304 0 2 C0 1.34 0 0.68 0 0 Z " fill="#4D7060" transform="translate(164,91)"/>
<path d="M0 0 C3.3 0.33 6.6 0.66 10 1 C10 1.33 10 1.66 10 2 C6.37 2.66 2.74 3.32 -1 4 C-0.67 2.68 -0.34 1.36 0 0 Z " fill="#718780" transform="translate(400,383)"/>
<path d="M0 0 C1.32 0 2.64 0 4 0 C4 1.65 4 3.3 4 5 C2.02 5.99 2.02 5.99 0 7 C0 4.69 0 2.38 0 0 Z " fill="#5E7E73" transform="translate(143,365)"/>
<path d="M0 0 C2.64 0 5.28 0 8 0 C8 0.99 8 1.98 8 3 C7.01 3.33 6.02 3.66 5 4 C5 3.34 5 2.68 5 2 C3.35 2 1.7 2 0 2 C0 1.34 0 0.68 0 0 Z " fill="#4C6F63" transform="translate(224,366)"/>
<path d="M0 0 C3.78611227 0.54087318 5.55400767 2.11722332 8 5 C8 5.66 8 6.32 8 7 C6.35 6.67 4.7 6.34 3 6 C2.87625 5.195625 2.7525 4.39125 2.625 3.5625 C2.315625 2.2940625 2.315625 2.2940625 2 1 C1.34 0.67 0.68 0.34 0 0 Z " fill="#DAEFE6" transform="translate(97,361)"/>
<path d="M0 0 C2.31 1.98 4.62 3.96 7 6 C6.34 6.66 5.68 7.32 5 8 C3.68 8 2.36 8 1 8 C0.67 5.36 0.34 2.72 0 0 Z " fill="#70917F" transform="translate(310,288)"/>
<path d="M0 0 C3.2542015 2.83430453 4.5206753 4.68607774 5 9 C3.0625 8.4375 3.0625 8.4375 1 7 C0.25 3.375 0.25 3.375 0 0 Z " fill="#83A490" transform="translate(208,200)"/>
<path d="M0 0 C1.875 0.25 1.875 0.25 4 1 C5.25 3.0625 5.25 3.0625 6 5 C1.25 4.125 1.25 4.125 -1 3 C-0.67 2.01 -0.34 1.02 0 0 Z " fill="#8FAA9A" transform="translate(190,177)"/>
<path d="M0 0 C1.98 0 3.96 0 6 0 C5.34 0.66 4.68 1.32 4 2 C4.99 2.33 5.98 2.66 7 3 C6.67 4.32 6.34 5.64 6 7 C6 6.01 6 5.02 6 4 C4.02 4 2.04 4 0 4 C0 2.68 0 1.36 0 0 Z " fill="#708980" transform="translate(188,374)"/>
<path d="M0 0 C5.75 -0.125 5.75 -0.125 8 1 C8 2.32 8 3.64 8 5 C5.69 5 3.38 5 1 5 C2.32 4.01 3.64 3.02 5 2 C3.35 1.67 1.7 1.34 0 1 C0 0.67 0 0.34 0 0 Z " fill="#D7E7E2" transform="translate(370,369)"/>
<path d="M0 0 C1.32 0 2.64 0 4 0 C2.95125002 2.62187494 2.35068687 3.79371361 -0.125 5.25 C-0.74375 5.4975 -1.3625 5.745 -2 6 C-1.125 1.125 -1.125 1.125 0 0 Z " fill="#4C6A5F" transform="translate(276,366)"/>
<path d="M0 0 C0 0.66 0 1.32 0 2 C-2.97 2 -5.94 2 -9 2 C-9 1.34 -9 0.68 -9 0 C-5.62182575 -0.84454356 -3.32534757 -1.10844919 0 0 Z " fill="#E2EEEA" transform="translate(194,363)"/>
<path d="M0 0 C0.66 0.99 1.32 1.98 2 3 C-1.4352048 5.29013653 -2.985331 5.17842973 -7 5 C-2.25 1.125 -2.25 1.125 0 0 Z " fill="#7D9B8A" transform="translate(225,284)"/>
<path d="M0 0 C0 0.99 0 1.98 0 3 C-0.66 3.66 -1.32 4.32 -2 5 C-1.67 5.66 -1.34 6.32 -1 7 C-2.98 7.66 -4.96 8.32 -7 9 C-5.44499019 5.18315774 -2.96404505 2.80804268 0 0 Z " fill="#DBF0E0" transform="translate(218,222)"/>
<path d="M0 0 C0.93065133 2.60582371 1.14917407 3.64198224 0.0625 6.25 C-0.4634375 7.11625 -0.4634375 7.11625 -1 8 C-1.33 7.34 -1.66 6.68 -2 6 C-2.99 5.67 -3.98 5.34 -5 5 C-3.35 3.35 -1.7 1.7 0 0 Z " fill="#85A48F" transform="translate(188,180)"/>
<path d="M0 0 C0.99 0 1.98 0 3 0 C3 2.31 3 4.62 3 7 C1.35 6.01 -0.3 5.02 -2 4 C-1.34 2.68 -0.68 1.36 0 0 Z " fill="#739580" transform="translate(237,130)"/>
<path d="M0 0 C3.63 0 7.26 0 11 0 C7.39338934 1.80330533 4.91606575 2.46599103 1 3 C0.67 2.01 0.34 1.02 0 0 Z " fill="#F0FDF9" transform="translate(85,389)"/>
<path d="M0 0 C1.9375 0.75 1.9375 0.75 4 2 C4.75 4.125 4.75 4.125 5 6 C3.35 5.67 1.7 5.34 0 5 C-0.5625 3.0625 -0.5625 3.0625 -1 1 C-0.67 0.67 -0.34 0.34 0 0 Z " fill="#4B685E" transform="translate(119,381)"/>
<path d="M0 0 C2.05078125 0.03255208 4.1015625 0.06510417 6.15234375 0.09765625 C5.82234375 1.41765625 5.49234375 2.73765625 5.15234375 4.09765625 C4.49234375 3.43765625 3.83234375 2.77765625 3.15234375 2.09765625 C1.83234375 2.09765625 0.51234375 2.09765625 -0.84765625 2.09765625 C-1.50765625 3.41765625 -2.16765625 4.73765625 -2.84765625 6.09765625 C-2.89037725 4.4315372 -2.88829457 2.7638274 -2.84765625 1.09765625 C-1.84765625 0.09765625 -1.84765625 0.09765625 0 0 Z " fill="#D4EBE3" transform="translate(187.84765625,377.90234375)"/>
<path d="M0 0 C2.475 0.495 2.475 0.495 5 1 C4.67 2.65 4.34 4.3 4 6 C3.01 5.67 2.02 5.34 1 5 C0.67 3.35 0.34 1.7 0 0 Z " fill="#537669" transform="translate(284,366)"/>
<path d="M0 0 C0.33 1.65 0.66 3.3 1 5 C0.505 4.690625 0.01 4.38125 -0.5 4.0625 C-3.97986781 2.58355618 -7.24028509 2.37597149 -11 2 C-11 1.67 -11 1.34 -11 1 C-3.375 0 -3.375 0 0 0 Z " fill="#D3E1DC" transform="translate(289,363)"/>
<path d="M0 0 C0.33 0 0.66 0 1 0 C0.67 2.97 0.34 5.94 0 9 C-1.65 9 -3.3 9 -5 9 C-4.6875 7.0625 -4.6875 7.0625 -4 5 C-3.01 4.67 -2.02 4.34 -1 4 C-0.26676204 1.98491642 -0.26676204 1.98491642 0 0 Z " fill="#D1E1DB" transform="translate(210,356)"/>
<path d="M0 0 C2.31 0 4.62 0 7 0 C6.67 0.99 6.34 1.98 6 3 C3.9375 3.6875 3.9375 3.6875 2 4 C2 3.34 2 2.68 2 2 C1.34 2 0.68 2 0 2 C0 1.34 0 0.68 0 0 Z " fill="#4C7164" transform="translate(104,300)"/>
<path d="M0 0 C1.32 0.66 2.64 1.32 4 2 C-1.75 7 -1.75 7 -4 7 C-2.79618552 4.50638429 -1.54571278 2.31856917 0 0 Z " fill="#BAD7CA" transform="translate(152,232)"/>
<path d="M0 0 C0.99 0 1.98 0 3 0 C2.34 2.31 1.68 4.62 1 7 C0.01 6.67 -0.98 6.34 -2 6 C-1.49396008 3.83125748 -1.00016187 2.00032373 0 0 Z " fill="#7FA087" transform="translate(223,210)"/>
<path d="M0 0 C2.125 0.375 2.125 0.375 4 1 C1.03 3.475 1.03 3.475 -2 6 C-2 2 -2 2 0 0 Z " fill="#EBF7F0" transform="translate(166,200)"/>
<path d="M0 0 C-0.33 1.32 -0.66 2.64 -1 4 C-2.875 3.6875 -2.875 3.6875 -5 3 C-5.66 2.01 -6.32 1.02 -7 0 C-3.86650268 -1.04449911 -3.01031744 -0.93423645 0 0 Z " fill="#83A78E" transform="translate(255,148)"/>
<path d="M0 0 C4.95 0.99 4.95 0.99 10 2 C5.64467851 4.17766075 4.53374042 4.03039555 0 3 C0 2.01 0 1.02 0 0 Z " fill="#E8F6F2" transform="translate(119,387)"/>
<path d="M0 0 C0.66 0.33 1.32 0.66 2 1 C1.67 1.33 1.34 1.66 1 2 C2.32 2.66 3.64 3.32 5 4 C3.02 4.66 1.04 5.32 -1 6 C-1 5.34 -1 4.68 -1 4 C-1.99 4 -2.98 4 -4 4 C-3 2 -3 2 0 0 Z " fill="#6E897E" transform="translate(163,365)"/>
<path d="M0 0 C1.32 0.66 2.64 1.32 4 2 C3.34 3.32 2.68 4.64 2 6 C1.01 5.01 0.02 4.02 -1 3 C-0.67 2.01 -0.34 1.02 0 0 Z " fill="#4E6C62" transform="translate(132,367)"/>
<path d="M0 0 C0.66 0.33 1.32 0.66 2 1 C0.02 3.97 0.02 3.97 -2 7 C-2.99 6.34 -3.98 5.68 -5 5 C-3.35 3.35 -1.7 1.7 0 0 Z " fill="#6B887C" transform="translate(366,263)"/>
<path d="M0 0 C0.99 0.33 1.98 0.66 3 1 C2.01 1.495 2.01 1.495 1 2 C0.71125 2.66 0.4225 3.32 0.125 4 C-1 6 -1 6 -3.125 6.75 C-4.053125 6.87375 -4.053125 6.87375 -5 7 C-3.70700306 4.11562221 -2.34058637 2.12780579 0 0 Z " fill="#6F887D" transform="translate(131,216)"/>
<path d="M0 0 C3.36591866 1.44253657 5.51047079 3.33264727 8 6 C7.01 6.495 7.01 6.495 6 7 C5.67 6.34 5.34 5.68 5 5 C3.02477154 3.95191959 1.02518491 2.9479589 -1 2 C-0.67 1.34 -0.34 0.68 0 0 Z " fill="#DAE7DD" transform="translate(233,133)"/>
<path d="M0 0 C2 3 2 3 1.625 5.1875 C1.41875 5.785625 1.2125 6.38375 1 7 C-2 7 -2 7 -4 6 C-2.68 4.02 -1.36 2.04 0 0 Z " fill="#D2DCD7" transform="translate(292,380)"/>
<path d="M0 0 C-0.33 0.99 -0.66 1.98 -1 3 C-3.31 3 -5.62 3 -8 3 C-8.33 2.34 -8.66 1.68 -9 1 C-5.846632 0.29925156 -3.27275026 0 0 0 Z " fill="#DAE9E2" transform="translate(286,381)"/>
<path d="M0 0 C-1.65 0.33 -3.3 0.66 -5 1 C-5 1.66 -5 2.32 -5 3 C-5.66 3 -6.32 3 -7 3 C-7.33 3.66 -7.66 4.32 -8 5 C-8.33 3.68 -8.66 2.36 -9 1 C-5.57367167 -0.61798838 -3.61944899 -1.34053666 0 0 Z " fill="#4C6B60" transform="translate(375,377)"/>
<path d="M0 0 C1.32 0.66 2.64 1.32 4 2 C3.67 3.32 3.34 4.64 3 6 C2.01 5.67 1.02 5.34 0 5 C-0.33 4.01 -0.66 3.02 -1 2 C-0.67 1.34 -0.34 0.68 0 0 Z " fill="#4F695E" transform="translate(103,359)"/>
<path d="M0 0 C0.33 1.32 0.66 2.64 1 4 C-1.9719385 2.87548273 -4.33440687 1.77706209 -7 0 C-3.86650268 -1.04449911 -3.01031744 -0.93423645 0 0 Z " fill="#CFDDD6" transform="translate(106,356)"/>
<path d="M0 0 C0.99 0.99 1.98 1.98 3 3 C2 6 2 6 -0.0625 7.1875 C-0.701875 7.455625 -1.34125 7.72375 -2 8 C-1.34 5.36 -0.68 2.72 0 0 Z " fill="#E6F4EF" transform="translate(369,258)"/>
<path d="M0 0 C0.66 0.33 1.32 0.66 2 1 C0.02 3.31 -1.96 5.62 -4 8 C-4.33 7.01 -4.66 6.02 -5 5 C-3.35 3.35 -1.7 1.7 0 0 Z " fill="#E7F7EE" transform="translate(111,238)"/>
<path d="M0 0 C0.86625 0.556875 0.86625 0.556875 1.75 1.125 C-1.6852048 3.41513653 -3.235331 3.30342973 -7.25 3.125 C-5.61609754 -0.14280491 -3.47460528 -1.35123539 0 0 Z " fill="#4F7967" transform="translate(133.25,220.875)"/>
<path d="M0 0 C0.33 0 0.66 0 1 0 C1 3.3 1 6.6 1 10 C-0.32 9.34 -1.64 8.68 -3 8 C-2.34 7.67 -1.68 7.34 -1 7 C-0.59270772 4.67843403 -0.25561323 2.3431213 0 0 Z " fill="#E3F3EE" transform="translate(269,372)"/>
<path d="M0 0 C2.875 -0.1875 2.875 -0.1875 6 0 C6.66 0.99 7.32 1.98 8 3 C2.25 3.125 2.25 3.125 0 2 C0 1.34 0 0.68 0 0 Z " fill="#557469" transform="translate(151,365)"/>
<path d="M0 0 C1 3 1 3 1 6 C0.34 6 -0.32 6 -1 6 C-1 5.01 -1 4.02 -1 3 C-2.65 3.33 -4.3 3.66 -6 4 C-3.94766315 1.7522025 -2.99332739 0.9977758 0 0 Z " fill="#57766B" transform="translate(383,290)"/>
<path d="M0 0 C0.66 0 1.32 0 2 0 C2.33 0.99 2.66 1.98 3 3 C0.525 4.485 0.525 4.485 -2 6 C-2 3 -2 3 0 0 Z " fill="#637C73" transform="translate(388,281)"/>
<path d="M0 0 C2.475 0.99 2.475 0.99 5 2 C3.35 3.65 1.7 5.3 0 7 C0 4.69 0 2.38 0 0 Z " fill="#578067" transform="translate(145,230)"/>
<path d="M0 0 C0.66 0.33 1.32 0.66 2 1 C-3.75 4.875 -3.75 4.875 -6 6 C-6.66 5.34 -7.32 4.68 -8 4 C-6.71349294 3.30289269 -5.42059335 2.61757124 -4.125 1.9375 C-3.40570313 1.55464844 -2.68640625 1.17179688 -1.9453125 0.77734375 C-1.30335938 0.52082031 -0.66140625 0.26429688 0 0 Z " fill="#9CB6A3" transform="translate(221,226)"/>
<path d="M0 0 C0.99 0.33 1.98 0.66 3 1 C3.6875 3.0625 3.6875 3.0625 4 5 C2.125 4.6875 2.125 4.6875 0 4 C-0.66 3.01 -1.32 2.02 -2 1 C-1.34 0.67 -0.68 0.34 0 0 Z " fill="#89A993" transform="translate(226,211)"/>
</svg>
